<?xml version="1.0" encoding="UTF-8"?>
<svg id="exportSvg" xmlns="http://www.w3.org/2000/svg" xmlns:xlink="http://www.w3.org/1999/xlink" version="1.1" viewBox="0 0 657 438">
  <!-- Generator: Adobe Illustrator 29.3.1, SVG Export Plug-In . SVG Version: 2.1.0 Build 151)  -->
  <defs>
    <style>
      .st0 {
        fill: none;
      }

      .st1 {
        isolation: isolate;
      }

      .st2 {
        fill: #fff;
      }

      .st3 {
        fill: #c7ada0;
      }

      .st4 {
        fill: #333;
      }

      .st5 {
        fill: #6e467a;
      }

      .st6 {
        fill: #888;
      }

      .st7 {
        clip-path: url(#clippath);
      }

      .st8 {
        fill: #181818;
      }
    </style>
    <clipPath id="clippath">
      <rect class="st0" width="657" height="461"/>
    </clipPath>
  </defs>
  <rect class="st2" width="657" height="438"/>
  <g class="st7">
    <g id="__svelte-dw-svg">
      <g id="container-svg_container-body-svg_datawrapper-3gBHp-8pdpge-svg">
        <g id="container-svg_container-bodyTop-svg_datawrapper-3gBHp-lmtz6e-svg">
          <g id="container-svg_container-bodyCenter-svg_datawrapper-3gBHp-1fgvipr-svg">
            <g id="container-svg_container-header-svg_datawrapper-3gBHp-xp3kt5-svg">
              <g class="st1">
                <g class="st1">
                  <path d="M3.9,37.4l2.6,9.1,2.6-9h1.8l2.6,9,2.6-9.1h1.6l-3,10.6h-2.6l-2.1-7.9-2.1,7.9h-2.6l-3-10.6h1.6Z"/>
                  <path d="M19.1,48v-11h1.6v4.4c.2-.4,1-1.1,2.3-1.1,2,0,3.1,1.3,3.1,3.1v4.6h-1.5v-4.2c0-1.2-.7-2-1.8-2s-2.1.7-2.1,2v4.2h-1.5Z"/>
                  <path d="M29.1,37c.6,0,1,.4,1,1s-.4,1-1,1-1-.4-1-1,.4-1,1-1ZM28.4,48v-7.5h1.5v7.5h-1.5Z"/>
                  <path d="M33.8,48h-1.5v-11h1.5v11Z"/>
                  <path d="M39.5,40.3c2.2,0,3.6,1.6,3.6,3.6s0,.5,0,.7h-5.8c0,1.1,1,2,2.3,2s1.7-.4,2.2-1.3l1.1.8c-.7,1.2-2.1,1.9-3.4,1.9-2.3,0-3.9-1.7-3.9-3.9s1.6-3.9,3.9-3.9ZM41.6,43.5c0-1.1-1-1.8-2.1-1.8s-2,.7-2.2,1.8h4.3Z"/>
                  <path d="M48.6,40.5h1.6v.9c.2-.4,1-1.1,2.3-1.1s2.2.5,2.7,1.4c.5-.7,1.4-1.4,2.7-1.4,2,0,3.1,1.3,3.1,3.1v4.6h-1.6v-4.2c0-1.2-.7-2-1.8-2s-2,.7-2,1.9v4.3h-1.6v-4.2c0-1.2-.7-2-1.8-2s-2,.7-2,2v4.2h-1.6v-7.5Z"/>
                  <path d="M66.5,40.3c2.2,0,3.6,1.6,3.6,3.6s0,.5,0,.7h-5.8c0,1.1,1,2,2.3,2s1.7-.4,2.2-1.3l1.1.8c-.7,1.2-2.1,1.9-3.4,1.9-2.3,0-3.9-1.7-3.9-3.9s1.6-3.9,3.9-3.9ZM68.5,43.5c0-1.1-1-1.8-2.1-1.8s-2,.7-2.2,1.8h4.3Z"/>
                  <path d="M72,48v-7.5h1.6v.9c.2-.4,1-1.1,2.3-1.1,2.1,0,3.1,1.3,3.1,3.1v4.6h-1.5v-4.2c0-1.2-.7-2-1.8-2s-2.1.7-2.1,2v4.2h-1.5Z"/>
                  <path d="M85.5,45.5c.4.7,1.1,1.2,2.1,1.2s1.4-.3,1.4-.8-.5-.7-1.6-1c-1.6-.4-2.8-.9-2.8-2.4s1.2-2.2,2.8-2.2,2.5.7,3,1.5l-1,.9c-.4-.6-1-1-1.9-1s-1.2.3-1.2.8.6.7,1.7,1c1.6.4,2.7.9,2.7,2.4s-1.4,2.2-3,2.2-2.7-.7-3.2-1.7l1.1-.9Z"/>
                  <path d="M95.8,40.3c2.2,0,3.6,1.6,3.6,3.6s0,.5,0,.7h-5.8c0,1.1,1,2,2.3,2s1.7-.4,2.2-1.3l1.1.8c-.7,1.2-2.1,1.9-3.4,1.9-2.3,0-3.9-1.7-3.9-3.9s1.6-3.9,3.9-3.9ZM97.8,43.5c0-1.1-1-1.8-2.1-1.8s-2,.7-2.2,1.8h4.3Z"/>
                  <path d="M101.2,48v-7.5h1.6v.9c.2-.4,1-1.1,2.3-1.1,2.1,0,3.1,1.3,3.1,3.1v4.6h-1.5v-4.2c0-1.2-.7-2-1.8-2s-2.1.7-2.1,2v4.2h-1.5Z"/>
                  <path d="M109.5,41.8v-1.3h1.4v-2.4h1.5v2.4h2.4v1.3h-2.4v3.8c0,.8.5,1.2,1.2,1.2s.9-.1,1.2-.3l.2,1.3c-.4.2-1,.3-1.6.3-1.6,0-2.6-.9-2.6-2.4v-3.9h-1.3Z"/>
                  <path d="M120.2,40.5h1.6v.9c.2-.4,1-1.1,2.3-1.1s2.2.5,2.7,1.4c.5-.7,1.4-1.4,2.7-1.4,2,0,3.1,1.3,3.1,3.1v4.6h-1.6v-4.2c0-1.2-.7-2-1.8-2s-2,.7-2,1.9v4.3h-1.6v-4.2c0-1.2-.7-2-1.8-2s-2,.7-2,2v4.2h-1.6v-7.5Z"/>
                  <path d="M134.1,44.2c0-2.2,1.7-3.9,4-3.9s4,1.7,4,3.9-1.7,3.9-4,3.9-4-1.7-4-3.9ZM138.1,46.7c1.4,0,2.4-1.1,2.4-2.5s-1-2.5-2.4-2.5-2.4,1.1-2.4,2.5,1,2.5,2.4,2.5Z"/>
                  <path d="M143.9,48v-7.5h1.6v1c.4-.8,1.1-1.2,2-1.2s1,.2,1,.2l-.2,1.4c0,0-.4-.2-.9-.2-.8,0-1.9.4-1.9,2.1v4.1h-1.6Z"/>
                  <path d="M153,40.3c2.2,0,3.6,1.6,3.6,3.6s0,.5,0,.7h-5.8c0,1.1,1,2,2.3,2s1.7-.4,2.2-1.3l1.1.8c-.7,1.2-2.1,1.9-3.4,1.9-2.3,0-3.9-1.7-3.9-3.9s1.6-3.9,3.9-3.9ZM155,43.5c0-1.1-1-1.8-2.1-1.8s-2,.7-2.2,1.8h4.3Z"/>
                  <path d="M163.6,48h-1.5v-11h1.5v11Z"/>
                  <path d="M166.8,37c.6,0,1,.4,1,1s-.4,1-1,1-1-.4-1-1,.4-1,1-1ZM166,48v-7.5h1.5v7.5h-1.5Z"/>
                  <path d="M171.5,37v6.8l3.3-3.3h2.1l-3.2,3.1,3.4,4.4h-2l-2.5-3.3-1,1v2.2h-1.6v-11h1.6Z"/>
                  <path d="M181.2,40.3c2.2,0,3.6,1.6,3.6,3.6s0,.5,0,.7h-5.8c0,1.1,1,2,2.3,2s1.7-.4,2.2-1.3l1.1.8c-.7,1.2-2.1,1.9-3.4,1.9-2.3,0-3.9-1.7-3.9-3.9s1.6-3.9,3.9-3.9ZM183.3,43.5c0-1.1-1-1.8-2.1-1.8s-2,.7-2.2,1.8h4.3Z"/>
                  <path d="M187.2,45.5c.4.7,1.1,1.2,2.1,1.2s1.4-.3,1.4-.8-.5-.7-1.6-1c-1.6-.4-2.8-.9-2.8-2.4s1.2-2.2,2.8-2.2,2.5.7,3,1.5l-1,.9c-.4-.6-1-1-1.9-1s-1.2.3-1.2.8.6.7,1.7,1c1.6.4,2.7.9,2.7,2.4s-1.4,2.2-3,2.2-2.7-.7-3.2-1.7l1.1-.9Z"/>
                  <path d="M195.9,46l-1.2,4h-1.4l1-4h1.6Z"/>
                  <path d="M200.3,40.5h1.6l1.6,6,1.8-5.9h1.6l1.8,5.9,1.6-6h1.6l-2.2,7.5h-2.1l-1.5-5.3-1.5,5.3h-2.1l-2.2-7.5Z"/>
                  <path d="M212.8,44.2c0-2.2,1.7-3.9,4-3.9s4,1.7,4,3.9-1.7,3.9-4,3.9-4-1.7-4-3.9ZM216.8,46.7c1.4,0,2.4-1.1,2.4-2.5s-1-2.5-2.4-2.5-2.4,1.1-2.4,2.5,1,2.5,2.4,2.5Z"/>
                  <path d="M222.6,40.5h1.6v.9c.2-.4,1-1.1,2.3-1.1s2.2.5,2.7,1.4c.5-.7,1.4-1.4,2.7-1.4,2,0,3.1,1.3,3.1,3.1v4.6h-1.6v-4.2c0-1.2-.7-2-1.8-2s-2,.7-2,1.9v4.3h-1.6v-4.2c0-1.2-.7-2-1.8-2s-2,.7-2,2v4.2h-1.6v-7.5Z"/>
                  <path d="M240.5,40.3c2.2,0,3.6,1.6,3.6,3.6s0,.5,0,.7h-5.8c0,1.1,1,2,2.3,2s1.7-.4,2.2-1.3l1.1.8c-.7,1.2-2.1,1.9-3.4,1.9-2.3,0-3.9-1.7-3.9-3.9s1.6-3.9,3.9-3.9ZM242.5,43.5c0-1.1-1-1.8-2.1-1.8s-2,.7-2.2,1.8h4.3Z"/>
                  <path d="M245.9,48v-7.5h1.6v.9c.2-.4,1-1.1,2.3-1.1,2.1,0,3.1,1.3,3.1,3.1v4.6h-1.5v-4.2c0-1.2-.7-2-1.8-2s-2.1.7-2.1,2v4.2h-1.5Z"/>
                  <path d="M258.9,48v-11h1.6v4.4c.2-.4,1-1.1,2.3-1.1,2,0,3.1,1.3,3.1,3.1v4.6h-1.5v-4.2c0-1.2-.7-2-1.8-2s-2.1.7-2.1,2v4.2h-1.5Z"/>
                  <path d="M270.9,43.5c.9,0,1.5.2,1.9.4v-.4c0-.9-.8-1.6-1.9-1.6s-1.7.5-2.1,1l-1-1c.6-.7,1.8-1.5,3.1-1.5,2.1,0,3.4,1.1,3.4,3v4.7h-1.5v-1c-.5.7-1.3,1.1-2.3,1.1-1.6,0-2.9-.8-2.9-2.3s1.3-2.4,3.3-2.4ZM270.8,46.9c1.2,0,2.1-.8,2.1-1.9-.3-.2-1-.4-1.9-.4s-1.8.3-1.8,1.1.7,1.1,1.6,1.1Z"/>
                  <path d="M279.9,40.3c1.3,0,2.1.5,2.7,1.2v-4.5h1.5v11h-1.5v-1c-.6.7-1.4,1.2-2.7,1.2-2.1,0-3.8-1.6-3.8-3.9s1.6-3.9,3.8-3.9ZM277.7,44.2c0,1.4,1,2.6,2.4,2.6s2.5-1.2,2.5-2.6-1-2.5-2.5-2.5-2.4,1.1-2.4,2.5Z"/>
                  <path d="M290.1,40.5h1.6v.9c.2-.4,1-1.1,2.3-1.1s2.2.5,2.7,1.4c.5-.7,1.4-1.4,2.7-1.4,2,0,3.1,1.3,3.1,3.1v4.6h-1.6v-4.2c0-1.2-.7-2-1.8-2s-2,.7-2,1.9v4.3h-1.6v-4.2c0-1.2-.7-2-1.8-2s-2,.7-2,2v4.2h-1.6v-7.5Z"/>
                  <path d="M304.1,44.2c0-2.2,1.7-3.9,4-3.9s4,1.7,4,3.9-1.7,3.9-4,3.9-4-1.7-4-3.9ZM308.1,46.7c1.4,0,2.4-1.1,2.4-2.5s-1-2.5-2.4-2.5-2.4,1.1-2.4,2.5,1,2.5,2.4,2.5Z"/>
                  <path d="M313.9,48v-7.5h1.6v1c.4-.8,1.1-1.2,2-1.2s1,.2,1,.2l-.2,1.4c0,0-.4-.2-.9-.2-.8,0-1.9.4-1.9,2.1v4.1h-1.6Z"/>
                  <path d="M322.9,40.3c2.2,0,3.6,1.6,3.6,3.6s0,.5,0,.7h-5.8c0,1.1,1,2,2.3,2s1.7-.4,2.2-1.3l1.1.8c-.7,1.2-2.1,1.9-3.4,1.9-2.3,0-3.9-1.7-3.9-3.9s1.6-3.9,3.9-3.9ZM325,43.5c0-1.1-1-1.8-2.1-1.8s-2,.7-2.2,1.8h4.3Z"/>
                  <path d="M332.1,40.5h1.6v.9c.2-.4,1-1.1,2.3-1.1s2.2.5,2.7,1.4c.5-.7,1.4-1.4,2.7-1.4,2,0,3.1,1.3,3.1,3.1v4.6h-1.6v-4.2c0-1.2-.7-2-1.8-2s-2,.7-2,1.9v4.3h-1.6v-4.2c0-1.2-.7-2-1.8-2s-2,.7-2,2v4.2h-1.6v-7.5Z"/>
                  <path d="M349.4,43.5c.9,0,1.5.2,1.9.4v-.4c0-.9-.8-1.6-1.9-1.6s-1.7.5-2.1,1l-1-1c.6-.7,1.8-1.5,3.1-1.5,2.1,0,3.4,1.1,3.4,3v4.7h-1.5v-1c-.5.7-1.3,1.1-2.3,1.1-1.6,0-2.9-.8-2.9-2.3s1.3-2.4,3.3-2.4ZM349.2,46.9c1.2,0,2.1-.8,2.1-1.9-.3-.2-1-.4-1.9-.4s-1.8.3-1.8,1.1.7,1.1,1.6,1.1Z"/>
                  <path d="M354.1,41.8v-1.3h1.4v-2.4h1.5v2.4h2.4v1.3h-2.4v3.8c0,.8.5,1.2,1.2,1.2s.9-.1,1.2-.3l.2,1.3c-.4.2-1,.3-1.6.3-1.6,0-2.6-.9-2.6-2.4v-3.9h-1.3Z"/>
                  <path d="M360.4,44.2c0-2.2,1.8-3.9,4-3.9s2.7.8,3.4,2.1l-1.2.8c-.5-.9-1.3-1.4-2.2-1.4-1.4,0-2.4,1.1-2.4,2.4s1,2.5,2.4,2.5,1.8-.5,2.3-1.4l1.2.8c-.7,1.2-2,2-3.5,2-2.3,0-4-1.7-4-3.9Z"/>
                  <path d="M369.5,48v-11h1.6v4.4c.2-.4,1-1.1,2.3-1.1,2,0,3.1,1.3,3.1,3.1v4.6h-1.5v-4.2c0-1.2-.7-2-1.8-2s-2.1.7-2.1,2v4.2h-1.5Z"/>
                  <path d="M382.1,40.3c2.2,0,3.6,1.6,3.6,3.6s0,.5,0,.7h-5.8c0,1.1,1,2,2.3,2s1.7-.4,2.2-1.3l1.1.8c-.7,1.2-2.1,1.9-3.4,1.9-2.3,0-3.9-1.7-3.9-3.9s1.6-3.9,3.9-3.9ZM384.1,43.5c0-1.1-1-1.8-2.1-1.8s-2,.7-2.2,1.8h4.3Z"/>
                  <path d="M388.1,45.5c.4.7,1.1,1.2,2.1,1.2s1.4-.3,1.4-.8-.5-.7-1.6-1c-1.6-.4-2.8-.9-2.8-2.4s1.2-2.2,2.8-2.2,2.5.7,3,1.5l-1,.9c-.4-.6-1-1-1.9-1s-1.2.3-1.2.8.6.7,1.7,1c1.6.4,2.7.9,2.7,2.4s-1.4,2.2-3,2.2-2.7-.7-3.2-1.7l1.1-.9Z"/>
                  <path d="M396.7,46l-1.2,4h-1.4l1-4h1.6Z"/>
                  <path d="M401.5,44.2c0-2.2,1.8-3.9,4-3.9s2.7.8,3.4,2.1l-1.2.8c-.5-.9-1.3-1.4-2.2-1.4-1.4,0-2.4,1.1-2.4,2.4s1,2.5,2.4,2.5,1.8-.5,2.3-1.4l1.2.8c-.7,1.2-2,2-3.5,2-2.3,0-4-1.7-4-3.9Z"/>
                  <path d="M410.6,48v-11h1.6v4.4c.2-.4,1-1.1,2.3-1.1,2,0,3.1,1.3,3.1,3.1v4.6h-1.5v-4.2c0-1.2-.7-2-1.8-2s-2.1.7-2.1,2v4.2h-1.5Z"/>
                  <path d="M422.6,43.5c.9,0,1.5.2,1.9.4v-.4c0-.9-.8-1.6-1.9-1.6s-1.7.5-2.1,1l-1-1c.6-.7,1.8-1.5,3.1-1.5,2.1,0,3.4,1.1,3.4,3v4.7h-1.5v-1c-.5.7-1.3,1.1-2.3,1.1-1.6,0-2.9-.8-2.9-2.3s1.3-2.4,3.3-2.4ZM422.4,46.9c1.2,0,2.1-.8,2.1-1.9-.3-.2-1-.4-1.9-.4s-1.8.3-1.8,1.1.7,1.1,1.6,1.1Z"/>
                  <path d="M427.4,41.8v-1.3h1.4v-2.4h1.5v2.4h2.4v1.3h-2.4v3.8c0,.8.5,1.2,1.2,1.2s.9-.1,1.2-.3l.2,1.3c-.4.2-1,.3-1.6.3-1.6,0-2.6-.9-2.6-2.4v-3.9h-1.3Z"/>
                  <path d="M434.9,45.5c.4.7,1.1,1.2,2.1,1.2s1.4-.3,1.4-.8-.5-.7-1.6-1c-1.6-.4-2.8-.9-2.8-2.4s1.2-2.2,2.8-2.2,2.5.7,3,1.5l-1,.9c-.4-.6-1-1-1.9-1s-1.2.3-1.2.8.6.7,1.7,1c1.6.4,2.7.9,2.7,2.4s-1.4,2.2-3,2.2-2.7-.7-3.2-1.7l1.1-.9Z"/>
                  <path d="M448.4,43.5c.9,0,1.5.2,1.9.4v-.4c0-.9-.8-1.6-1.9-1.6s-1.7.5-2.1,1l-1-1c.6-.7,1.8-1.5,3.1-1.5,2.1,0,3.4,1.1,3.4,3v4.7h-1.5v-1c-.5.7-1.3,1.1-2.3,1.1-1.6,0-2.9-.8-2.9-2.3s1.3-2.4,3.3-2.4ZM448.2,46.9c1.2,0,2.1-.8,2.1-1.9-.3-.2-1-.4-1.9-.4s-1.8.3-1.8,1.1.7,1.1,1.6,1.1Z"/>
                  <path d="M454.1,48v-7.5h1.6v.9c.2-.4,1-1.1,2.3-1.1,2.1,0,3.1,1.3,3.1,3.1v4.6h-1.5v-4.2c0-1.2-.7-2-1.8-2s-2.1.7-2.1,2v4.2h-1.5Z"/>
                  <path d="M466.6,40.3c1.3,0,2.1.5,2.7,1.2v-4.5h1.5v11h-1.5v-1c-.6.7-1.4,1.2-2.7,1.2-2.1,0-3.8-1.6-3.8-3.9s1.6-3.9,3.8-3.9ZM464.4,44.2c0,1.4,1,2.6,2.4,2.6s2.5-1.2,2.5-2.6-1-2.5-2.5-2.5-2.4,1.1-2.4,2.5Z"/>
                  <path d="M480.1,40.3c1.3,0,2.1.5,2.7,1.2v-4.5h1.5v11h-1.5v-1c-.6.7-1.4,1.2-2.7,1.2-2.1,0-3.8-1.6-3.8-3.9s1.6-3.9,3.8-3.9ZM477.9,44.2c0,1.4,1,2.6,2.4,2.6s2.5-1.2,2.5-2.6-1-2.5-2.5-2.5-2.4,1.1-2.4,2.5Z"/>
                  <path d="M489.5,43.5c.9,0,1.5.2,1.9.4v-.4c0-.9-.8-1.6-1.9-1.6s-1.7.5-2.1,1l-1-1c.6-.7,1.8-1.5,3.1-1.5,2.1,0,3.4,1.1,3.4,3v4.7h-1.5v-1c-.5.7-1.3,1.1-2.3,1.1-1.6,0-2.9-.8-2.9-2.3s1.3-2.4,3.3-2.4ZM489.3,46.9c1.2,0,2.1-.8,2.1-1.9-.3-.2-1-.4-1.9-.4s-1.8.3-1.8,1.1.7,1.1,1.6,1.1Z"/>
                  <path d="M494.2,41.8v-1.3h1.4v-2.4h1.5v2.4h2.4v1.3h-2.4v3.8c0,.8.5,1.2,1.2,1.2s.9-.1,1.2-.3l.2,1.3c-.4.2-1,.3-1.6.3-1.6,0-2.6-.9-2.6-2.4v-3.9h-1.3Z"/>
                  <path d="M504.4,40.3c2.2,0,3.6,1.6,3.6,3.6s0,.5,0,.7h-5.8c0,1.1,1,2,2.3,2s1.7-.4,2.2-1.3l1.1.8c-.7,1.2-2.1,1.9-3.4,1.9-2.3,0-3.9-1.7-3.9-3.9s1.6-3.9,3.9-3.9ZM506.4,43.5c0-1.1-1-1.8-2.1-1.8s-2,.7-2.2,1.8h4.3Z"/>
                  <path d="M510.4,45.5c.4.7,1.1,1.2,2.1,1.2s1.4-.3,1.4-.8-.5-.7-1.6-1c-1.6-.4-2.8-.9-2.8-2.4s1.2-2.2,2.8-2.2,2.5.7,3,1.5l-1,.9c-.4-.6-1-1-1.9-1s-1.2.3-1.2.8.6.7,1.7,1c1.6.4,2.7.9,2.7,2.4s-1.4,2.2-3,2.2-2.7-.7-3.2-1.7l1.1-.9Z"/>
                  <path d="M517.8,46.2c.5,0,1,.4,1,1s-.4,1-1,1-1-.4-1-1,.4-1,1-1Z"/>
                </g>
              </g>
            </g>
            <g id="chart-svg">
              <g class="st1">
                <g class="st1">
                  <path class="st8" d="M1.2,79.8h6.5v1.2h-2.6v6.8h-1.2v-6.8H1.2v-1.2Z"/>
                  <path class="st8" d="M7.1,85c0-1.6,1.3-2.9,3-2.9s3,1.3,3,2.9-1.3,2.9-3,2.9-3-1.3-3-2.9ZM10.1,86.8c1.1,0,1.8-.8,1.8-1.8s-.8-1.8-1.8-1.8-1.8.8-1.8,1.8.8,1.8,1.8,1.8Z"/>
                  <path class="st8" d="M13.7,83.2v-1h1v-1.8h1.1v1.8h1.8v1h-1.8v2.8c0,.6.3.9.9.9s.6,0,.9-.2l.2,1c-.3.1-.8.2-1.2.2-1.2,0-1.9-.7-1.9-1.8v-3h-1Z"/>
                  <path class="st8" d="M21,84.4c.7,0,1.2.1,1.4.3v-.3c0-.7-.6-1.2-1.4-1.2s-1.3.4-1.6.8l-.7-.7c.4-.6,1.3-1.1,2.4-1.1,1.6,0,2.6.9,2.6,2.2v3.5h-1.1v-.7c-.3.5-1,.8-1.8.8-1.2,0-2.2-.6-2.2-1.7s1-1.8,2.5-1.8ZM20.9,87c.9,0,1.6-.6,1.6-1.4-.2-.1-.8-.3-1.4-.3s-1.3.2-1.3.9.5.8,1.2.8Z"/>
                  <path class="st8" d="M26.4,87.8h-1.2v-8.2h1.2v8.2Z"/>
                  <path class="st8" d="M32.4,87.8h-1.2v-8h1.2v8Z"/>
                  <path class="st8" d="M34.3,87.8v-5.6h1.2v.7c.2-.3.7-.8,1.7-.8,1.5,0,2.4,1,2.4,2.3v3.4h-1.2v-3.2c0-.9-.5-1.5-1.4-1.5s-1.6.5-1.6,1.5v3.2h-1.2Z"/>
                  <path class="st8" d="M40.5,83.2v-1h1v-1.8h1.1v1.8h1.8v1h-1.8v2.8c0,.6.3.9.9.9s.6,0,.9-.2l.2,1c-.3.1-.8.2-1.2.2-1.2,0-1.9-.7-1.9-1.8v-3h-1Z"/>
                  <path class="st8" d="M48.1,82.1c1.6,0,2.7,1.2,2.7,2.7s0,.4,0,.5h-4.4c0,.8.8,1.5,1.7,1.5s1.3-.3,1.7-1l.9.6c-.5.9-1.5,1.4-2.5,1.4-1.7,0-2.9-1.3-2.9-2.9s1.2-2.9,2.9-2.9ZM49.6,84.5c0-.8-.7-1.3-1.5-1.3s-1.5.6-1.7,1.3h3.2Z"/>
                  <path class="st8" d="M52.2,87.8v-5.6h1.2v.8c.3-.6.8-.9,1.5-.9s.8.1.8.1v1.1c-.2,0-.4-.1-.8-.1-.6,0-1.4.3-1.4,1.6v3.1h-1.2Z"/>
                  <path class="st8" d="M58.6,84.4c.7,0,1.2.1,1.4.3v-.3c0-.7-.6-1.2-1.4-1.2s-1.3.4-1.6.8l-.7-.7c.4-.6,1.3-1.1,2.4-1.1,1.6,0,2.6.9,2.6,2.2v3.5h-1.1v-.7c-.3.5-1,.8-1.8.8-1.2,0-2.2-.6-2.2-1.7s1-1.8,2.5-1.8ZM58.5,87c.9,0,1.6-.6,1.6-1.4-.2-.1-.8-.3-1.4-.3s-1.3.2-1.3.9.5.8,1.2.8Z"/>
                  <path class="st8" d="M62.5,85c0-1.6,1.3-2.9,3-2.9s2,.6,2.6,1.5l-.9.6c-.4-.7-1-1.1-1.7-1.1-1.1,0-1.8.8-1.8,1.8s.8,1.8,1.8,1.8,1.3-.4,1.7-1.1l.9.6c-.5.9-1.5,1.5-2.6,1.5-1.7,0-3-1.3-3-2.9Z"/>
                  <path class="st8" d="M68.7,83.2v-1h1v-1.8h1.1v1.8h1.8v1h-1.8v2.8c0,.6.3.9.9.9s.6,0,.9-.2l.2,1c-.3.1-.8.2-1.2.2-1.2,0-1.9-.7-1.9-1.8v-3h-1Z"/>
                  <path class="st8" d="M74.5,79.6c.4,0,.7.3.7.7s-.3.7-.7.7-.7-.3-.7-.7.3-.7.7-.7ZM73.9,87.8v-5.6h1.2v5.6h-1.2Z"/>
                  <path class="st8" d="M76.5,85c0-1.6,1.3-2.9,3-2.9s3,1.3,3,2.9-1.3,2.9-3,2.9-3-1.3-3-2.9ZM79.4,86.8c1.1,0,1.8-.8,1.8-1.8s-.8-1.8-1.8-1.8-1.8.8-1.8,1.8.8,1.8,1.8,1.8Z"/>
                  <path class="st8" d="M83.8,87.8v-5.6h1.2v.7c.2-.3.7-.8,1.7-.8,1.5,0,2.4,1,2.4,2.3v3.4h-1.2v-3.2c0-.9-.5-1.5-1.4-1.5s-1.6.5-1.6,1.5v3.2h-1.2Z"/>
                  <path class="st8" d="M91.2,85.9c.3.6.9.9,1.6.9s1.1-.2,1.1-.6-.3-.5-1.2-.7c-1.2-.3-2.1-.7-2.1-1.8s.9-1.7,2.1-1.7,1.9.5,2.2,1.2l-.8.7c-.3-.4-.8-.8-1.4-.8s-.9.2-.9.6.4.5,1.2.7c1.2.3,2,.7,2,1.8s-1,1.7-2.2,1.7-2-.5-2.4-1.3l.9-.7Z"/>
                </g>
              </g>
              <rect class="st5" x="103.7" y="63" width="309.7" height="20"/>
              <rect class="st3" x="103.7" y="83" width="552.3" height="20"/>
              <g class="st1">
                <g class="st1">
                  <path class="st8" d="M7.8,152.8H2v-8h1.2v6.8h4.5v1.1Z"/>
                  <path class="st8" d="M9.5,144.6c.4,0,.7.3.7.7s-.3.7-.7.7-.7-.3-.7-.7.3-.7.7-.7ZM8.9,152.8v-5.6h1.2v5.6h-1.2Z"/>
                  <path class="st8" d="M13,144.5v5.1l2.5-2.4h1.6l-2.4,2.4,2.5,3.3h-1.5l-1.9-2.5-.8.8v1.7h-1.2v-8.2h1.2Z"/>
                  <path class="st8" d="M20.3,147.1c1.6,0,2.7,1.2,2.7,2.7s0,.4,0,.5h-4.4c0,.8.8,1.5,1.7,1.5s1.3-.3,1.7-1l.9.6c-.5.9-1.5,1.4-2.5,1.4-1.7,0-2.9-1.3-2.9-2.9s1.2-2.9,2.9-2.9ZM21.8,149.5c0-.8-.7-1.3-1.5-1.3s-1.5.6-1.7,1.3h3.2Z"/>
                  <path class="st8" d="M24.8,150.9c.3.6.9.9,1.6.9s1.1-.2,1.1-.6-.3-.5-1.2-.7c-1.2-.3-2.1-.7-2.1-1.8s.9-1.7,2.1-1.7,1.9.5,2.2,1.2l-.8.7c-.3-.4-.8-.8-1.4-.8s-.9.2-.9.6.4.5,1.2.7c1.2.3,2,.7,2,1.8s-1,1.7-2.2,1.7-2-.5-2.4-1.3l.9-.7Z"/>
                  <path class="st8" d="M33.3,150.5c.4.8,1.1,1.3,2.2,1.3s1.6-.4,1.6-1.1-.6-1-1.8-1.3c-1.5-.5-2.7-1-2.7-2.4,0-1.5,1.4-2.2,2.7-2.2s2.4.8,2.9,1.6l-1,.7c-.3-.6-1-1.2-1.9-1.2s-1.5.4-1.5,1.1.7.9,1.8,1.3c1.5.5,2.7.9,2.7,2.5s-1.5,2.3-2.8,2.3-2.7-.8-3.1-1.8l.9-.6Z"/>
                  <path class="st8" d="M42.3,147.1c1.6,0,2.7,1.2,2.7,2.7s0,.4,0,.5h-4.4c0,.8.8,1.5,1.7,1.5s1.3-.3,1.7-1l.9.6c-.5.9-1.5,1.4-2.5,1.4-1.7,0-2.9-1.3-2.9-2.9s1.2-2.9,2.9-2.9ZM43.8,149.5c0-.8-.7-1.3-1.5-1.3s-1.5.6-1.7,1.3h3.2Z"/>
                  <path class="st8" d="M46.4,152.8v-5.6h1.2v.7c.2-.3.7-.8,1.7-.8,1.5,0,2.4,1,2.4,2.3v3.4h-1.2v-3.2c0-.9-.5-1.5-1.4-1.5s-1.6.5-1.6,1.5v3.2h-1.2Z"/>
                  <path class="st8" d="M52.6,148.2v-1h1v-1.8h1.1v1.8h1.8v1h-1.8v2.8c0,.6.3.9.9.9s.6,0,.9-.2l.2,1c-.3.1-.8.2-1.2.2-1.2,0-1.9-.7-1.9-1.8v-3h-1Z"/>
                </g>
              </g>
              <rect class="st5" x="103.7" y="128" width="218.5" height="20"/>
              <rect class="st3" x="103.7" y="148" width="541.5" height="20"/>
              <g class="st1">
                <g class="st1">
                  <path class="st8" d="M2,209.8h1.5l2.7,5.7,2.8-5.7h1.5v8h-1.2v-5.7l-2.5,5.1h-.9l-2.5-5.1v5.7h-1.2v-8Z"/>
                  <path class="st8" d="M14.5,214.4c.7,0,1.2.1,1.4.3v-.3c0-.7-.6-1.2-1.4-1.2s-1.3.4-1.6.8l-.7-.7c.4-.6,1.3-1.1,2.4-1.1,1.6,0,2.6.9,2.6,2.2v3.5h-1.1v-.7c-.3.5-1,.8-1.8.8-1.2,0-2.2-.6-2.2-1.7s1-1.8,2.5-1.8ZM14.3,217c.9,0,1.6-.6,1.6-1.4-.2-.1-.8-.3-1.4-.3s-1.3.2-1.3.9.5.8,1.2.8Z"/>
                  <path class="st8" d="M18,213.2v-1h1v-1.8h1.1v1.8h1.8v1h-1.8v2.8c0,.6.3.9.9.9s.6,0,.9-.2l.2,1c-.3.1-.8.2-1.2.2-1.2,0-1.9-.7-1.9-1.8v-3h-1Z"/>
                  <path class="st8" d="M22.7,215c0-1.6,1.3-2.9,3-2.9s2,.6,2.6,1.5l-.9.6c-.4-.7-1-1.1-1.7-1.1-1.1,0-1.8.8-1.8,1.8s.8,1.8,1.8,1.8,1.3-.4,1.7-1.1l.9.6c-.5.9-1.5,1.5-2.6,1.5-1.7,0-3-1.3-3-2.9Z"/>
                  <path class="st8" d="M29.6,217.8v-8.2h1.2v3.3c.2-.3.7-.8,1.7-.8,1.5,0,2.3,1,2.3,2.3v3.4h-1.2v-3.2c0-.9-.5-1.5-1.4-1.5s-1.6.5-1.6,1.5v3.2h-1.2Z"/>
                  <path class="st8" d="M39,212.1c1.6,0,2.7,1.2,2.7,2.7s0,.4,0,.5h-4.4c0,.8.8,1.5,1.7,1.5s1.3-.3,1.7-1l.9.6c-.5.9-1.5,1.4-2.5,1.4-1.7,0-2.9-1.3-2.9-2.9s1.2-2.9,2.9-2.9ZM40.5,214.5c0-.8-.7-1.3-1.5-1.3s-1.5.6-1.7,1.3h3.2Z"/>
                  <path class="st8" d="M43.5,215.9c.3.6.9.9,1.6.9s1.1-.2,1.1-.6-.3-.5-1.2-.7c-1.2-.3-2.1-.7-2.1-1.8s.9-1.7,2.1-1.7,1.9.5,2.2,1.2l-.8.7c-.3-.4-.8-.8-1.4-.8s-.9.2-.9.6.4.5,1.2.7c1.2.3,2,.7,2,1.8s-1,1.7-2.2,1.7-2-.5-2.4-1.3l.9-.7Z"/>
                </g>
              </g>
              <rect class="st5" x="103.7" y="193" width="168.5" height="20"/>
              <rect class="st3" x="103.7" y="213" width="47.8" height="20"/>
              <g class="st1">
                <g class="st1">
                  <path class="st8" d="M5.6,274.7c1.4,0,2.7.7,3.5,1.9l-1,.7c-.6-1-1.5-1.4-2.5-1.4-1.6,0-2.8,1.2-2.8,2.9s1.2,2.9,2.8,2.9,2-.5,2.6-1.4l.9.6c-.8,1.2-2,1.9-3.5,1.9-2.3,0-4.1-1.8-4.1-4.1s1.8-4.1,4.1-4.1Z"/>
                  <path class="st8" d="M9.9,280c0-1.6,1.3-2.9,3-2.9s3,1.3,3,2.9-1.3,2.9-3,2.9-3-1.3-3-2.9ZM12.9,281.8c1.1,0,1.8-.8,1.8-1.8s-.8-1.8-1.8-1.8-1.8.8-1.8,1.8.8,1.8,1.8,1.8Z"/>
                  <path class="st8" d="M17.2,282.8v-5.6h1.2v.7c.2-.3.7-.8,1.7-.8,1.5,0,2.4,1,2.4,2.3v3.4h-1.2v-3.2c0-.9-.5-1.5-1.4-1.5s-1.6.5-1.6,1.5v3.2h-1.2Z"/>
                  <path class="st8" d="M23.4,277.2h1.2l1.7,4.5,1.7-4.5h1.2l-2.2,5.6h-1.4l-2.2-5.6Z"/>
                  <path class="st8" d="M32.6,277.1c1.6,0,2.7,1.2,2.7,2.7s0,.4,0,.5h-4.4c0,.8.8,1.5,1.7,1.5s1.3-.3,1.7-1l.9.6c-.5.9-1.5,1.4-2.5,1.4-1.7,0-2.9-1.3-2.9-2.9s1.2-2.9,2.9-2.9ZM34.1,279.5c0-.8-.7-1.3-1.5-1.3s-1.5.6-1.7,1.3h3.2Z"/>
                  <path class="st8" d="M36.7,282.8v-5.6h1.2v.8c.3-.6.8-.9,1.5-.9s.8.1.8.1v1.1c-.2,0-.4-.1-.8-.1-.6,0-1.4.3-1.4,1.6v3.1h-1.2Z"/>
                  <path class="st8" d="M41.5,280.9c.3.6.9.9,1.6.9s1.1-.2,1.1-.6-.3-.5-1.2-.7c-1.2-.3-2.1-.7-2.1-1.8s.9-1.7,2.1-1.7,1.9.5,2.2,1.2l-.8.7c-.3-.4-.8-.8-1.4-.8s-.9.2-.9.6.4.5,1.2.7c1.2.3,2,.7,2,1.8s-1,1.7-2.2,1.7-2-.5-2.4-1.3l.9-.7Z"/>
                  <path class="st8" d="M48.8,279.4c.7,0,1.2.1,1.4.3v-.3c0-.7-.6-1.2-1.4-1.2s-1.3.4-1.6.8l-.7-.7c.4-.6,1.3-1.1,2.4-1.1,1.6,0,2.6.9,2.6,2.2v3.5h-1.1v-.7c-.3.5-1,.8-1.8.8-1.2,0-2.2-.6-2.2-1.7s1-1.8,2.5-1.8ZM48.7,282c.9,0,1.6-.6,1.6-1.4-.2-.1-.8-.3-1.4-.3s-1.3.2-1.3.9.5.8,1.2.8Z"/>
                  <path class="st8" d="M52.4,278.2v-1h1v-1.8h1.1v1.8h1.8v1h-1.8v2.8c0,.6.3.9.9.9s.6,0,.9-.2l.2,1c-.3.1-.8.2-1.2.2-1.2,0-1.9-.7-1.9-1.8v-3h-1Z"/>
                  <path class="st8" d="M58.2,274.6c.4,0,.7.3.7.7s-.3.7-.7.7-.7-.3-.7-.7.3-.7.7-.7ZM57.6,282.8v-5.6h1.2v5.6h-1.2Z"/>
                  <path class="st8" d="M60.2,280c0-1.6,1.3-2.9,3-2.9s3,1.3,3,2.9-1.3,2.9-3,2.9-3-1.3-3-2.9ZM63.1,281.8c1.1,0,1.8-.8,1.8-1.8s-.8-1.8-1.8-1.8-1.8.8-1.8,1.8.8,1.8,1.8,1.8Z"/>
                  <path class="st8" d="M67.5,282.8v-5.6h1.2v.7c.2-.3.7-.8,1.7-.8,1.5,0,2.4,1,2.4,2.3v3.4h-1.2v-3.2c0-.9-.5-1.5-1.4-1.5s-1.6.5-1.6,1.5v3.2h-1.2Z"/>
                  <path class="st8" d="M74.9,280.9c.3.6.9.9,1.6.9s1.1-.2,1.1-.6-.3-.5-1.2-.7c-1.2-.3-2.1-.7-2.1-1.8s.9-1.7,2.1-1.7,1.9.5,2.2,1.2l-.8.7c-.3-.4-.8-.8-1.4-.8s-.9.2-.9.6.4.5,1.2.7c1.2.3,2,.7,2,1.8s-1,1.7-2.2,1.7-2-.5-2.4-1.3l.9-.7Z"/>
                </g>
              </g>
              <rect class="st5" x="103.7" y="258" width="131.8" height="20"/>
              <rect class="st3" x="103.7" y="278" width="41.1" height="20"/>
              <g class="st1">
                <g class="st1">
                  <path class="st8" d="M7.8,347.8H2v-8h1.2v6.8h4.5v1.1Z"/>
                  <path class="st8" d="M9.5,339.6c.4,0,.7.3.7.7s-.3.7-.7.7-.7-.3-.7-.7.3-.7.7-.7ZM8.9,347.8v-5.6h1.2v5.6h-1.2Z"/>
                  <path class="st8" d="M13,339.5v5.1l2.5-2.4h1.6l-2.4,2.4,2.5,3.3h-1.5l-1.9-2.5-.8.8v1.7h-1.2v-8.2h1.2Z"/>
                  <path class="st8" d="M20.3,342.1c1.6,0,2.7,1.2,2.7,2.7s0,.4,0,.5h-4.4c0,.8.8,1.5,1.7,1.5s1.3-.3,1.7-1l.9.6c-.5.9-1.5,1.4-2.5,1.4-1.7,0-2.9-1.3-2.9-2.9s1.2-2.9,2.9-2.9ZM21.8,344.5c0-.8-.7-1.3-1.5-1.3s-1.5.6-1.7,1.3h3.2Z"/>
                  <path class="st8" d="M30.7,339.8c1.6,0,2.7.9,2.7,2.4s-.6,1.9-1.6,2.2l1.9,3.3h-1.4l-1.8-3.1h-2v3.1h-1.2v-8h3.4ZM28.5,341v2.6h2.1c1,0,1.5-.5,1.5-1.3s-.5-1.3-1.5-1.3h-2.1Z"/>
                  <path class="st8" d="M37.3,342.1c1.6,0,2.7,1.2,2.7,2.7s0,.4,0,.5h-4.4c0,.8.8,1.5,1.7,1.5s1.3-.3,1.7-1l.9.6c-.5.9-1.5,1.4-2.5,1.4-1.7,0-2.9-1.3-2.9-2.9s1.2-2.9,2.9-2.9ZM38.9,344.5c0-.8-.7-1.3-1.5-1.3s-1.5.6-1.7,1.3h3.2Z"/>
                  <path class="st8" d="M41,345c0-1.6,1.3-2.9,3-2.9s2,.6,2.6,1.5l-.9.6c-.4-.7-1-1.1-1.7-1.1-1.1,0-1.8.8-1.8,1.8s.8,1.8,1.8,1.8,1.3-.4,1.7-1.1l.9.6c-.5.9-1.5,1.5-2.6,1.5-1.7,0-3-1.3-3-2.9Z"/>
                  <path class="st8" d="M50.3,342.1c1.6,0,2.7,1.2,2.7,2.7s0,.4,0,.5h-4.4c0,.8.8,1.5,1.7,1.5s1.3-.3,1.7-1l.9.6c-.5.9-1.5,1.4-2.5,1.4-1.7,0-2.9-1.3-2.9-2.9s1.2-2.9,2.9-2.9ZM51.8,344.5c0-.8-.7-1.3-1.5-1.3s-1.5.6-1.7,1.3h3.2Z"/>
                  <path class="st8" d="M55,339.6c.4,0,.7.3.7.7s-.3.7-.7.7-.7-.3-.7-.7.3-.7.7-.7ZM54.4,347.8v-5.6h1.2v5.6h-1.2Z"/>
                  <path class="st8" d="M56.6,342.2h1.2l1.7,4.5,1.7-4.5h1.2l-2.2,5.6h-1.4l-2.2-5.6Z"/>
                  <path class="st8" d="M65.9,342.1c1.6,0,2.7,1.2,2.7,2.7s0,.4,0,.5h-4.4c0,.8.8,1.5,1.7,1.5s1.3-.3,1.7-1l.9.6c-.5.9-1.5,1.4-2.5,1.4-1.7,0-2.9-1.3-2.9-2.9s1.2-2.9,2.9-2.9ZM67.4,344.5c0-.8-.7-1.3-1.5-1.3s-1.5.6-1.7,1.3h3.2Z"/>
                  <path class="st8" d="M72.4,342.1c1,0,1.6.4,2,.9v-3.4h1.2v8.2h-1.2v-.8c-.4.5-1,.9-2,.9-1.6,0-2.8-1.2-2.8-3s1.2-2.9,2.8-2.9ZM70.7,345c0,1,.7,1.9,1.8,1.9s1.9-.9,1.9-1.9-.8-1.9-1.9-1.9-1.8.8-1.8,1.9Z"/>
                </g>
              </g>
              <rect class="st5" x="103.7" y="323" width="91.2" height="20"/>
              <rect class="st3" x="103.7" y="343" width="10.7" height="20"/>
              <g class="st1">
                <g class="st1">
                  <path class="st8" d="M5.2,404.8c2.4,0,4.1,1.7,4.1,4s-1.7,4-4.1,4h-3.2v-8h3.2ZM5.2,411.7c1.7,0,2.8-1.2,2.8-2.9s-1.1-2.9-2.8-2.9h-2v5.7h2Z"/>
                  <path class="st8" d="M12.8,409.4c.7,0,1.2.1,1.4.3v-.3c0-.7-.6-1.2-1.4-1.2s-1.3.4-1.6.8l-.7-.7c.4-.6,1.3-1.1,2.4-1.1,1.6,0,2.6.9,2.6,2.2v3.5h-1.1v-.7c-.3.5-1,.8-1.8.8-1.2,0-2.2-.6-2.2-1.7s1-1.8,2.5-1.8ZM12.7,412c.9,0,1.6-.6,1.6-1.4-.2-.1-.8-.3-1.4-.3s-1.3.2-1.3.9.5.8,1.2.8Z"/>
                  <path class="st8" d="M16.4,408.2v-1h1v-1.8h1.1v1.8h1.8v1h-1.8v2.8c0,.6.3.9.9.9s.6,0,.9-.2l.2,1c-.3.1-.8.2-1.2.2-1.2,0-1.9-.7-1.9-1.8v-3h-1Z"/>
                  <path class="st8" d="M24,407.1c1.6,0,2.7,1.2,2.7,2.7s0,.4,0,.5h-4.4c0,.8.8,1.5,1.7,1.5s1.3-.3,1.7-1l.9.6c-.5.9-1.5,1.4-2.5,1.4-1.7,0-2.9-1.3-2.9-2.9s1.2-2.9,2.9-2.9ZM25.5,409.5c0-.8-.7-1.3-1.5-1.3s-1.5.6-1.7,1.3h3.2Z"/>
                  <path class="st8" d="M28.5,410.9c.3.6.9.9,1.6.9s1.1-.2,1.1-.6-.3-.5-1.2-.7c-1.2-.3-2.1-.7-2.1-1.8s.9-1.7,2.1-1.7,1.9.5,2.2,1.2l-.8.7c-.3-.4-.8-.8-1.4-.8s-.9.2-.9.6.4.5,1.2.7c1.2.3,2,.7,2,1.8s-1,1.7-2.2,1.7-2-.5-2.4-1.3l.9-.7Z"/>
                </g>
              </g>
              <rect class="st5" x="103.7" y="388" width=".9" height="20"/>
              <rect class="st3" x="103.7" y="408" width=".2" height="20"/>
              <g class="st1">
                <g class="st1">
                  <path class="st2" d="M109.3,74.3c0-2.6,1.1-4.4,3.6-4.4s1.4.2,1.9.5l-.4,1c-.5-.3-1-.4-1.5-.4-1.4,0-2.3.8-2.4,2.7.4-.7,1.3-.9,2-.9,1.3,0,2.8.8,2.8,2.6s-1.2,2.7-2.8,2.7-3.1-1.7-3.1-3.8ZM110.7,75.4c0,1,.7,1.6,1.6,1.6s1.6-.6,1.6-1.6-.6-1.6-1.7-1.6-1.6.6-1.6,1.5Z"/>
                  <path class="st2" d="M116.1,72.6c0-1.7,1.2-2.7,2.9-2.7s3.1,1.7,3.1,3.8-1.1,4.4-3.6,4.4-1.5-.2-2-.5l.4-1c.5.3,1,.5,1.5.5,1.3,0,2.3-.9,2.4-2.7-.4.6-1.1.9-1.9.9-1.7,0-2.8-1-2.8-2.6ZM117.4,72.6c0,1,.6,1.6,1.6,1.6s1.6-.8,1.6-1.5-.6-1.6-1.6-1.6-1.7.6-1.7,1.6Z"/>
                  <path class="st2" d="M124.1,75.8c.3.7.9,1.2,1.7,1.2s1.4-.5,1.4-1.2-.7-1.3-1.6-1.3h-1v-1.1h1c.8,0,1.4-.4,1.4-1.2s-.6-1.1-1.4-1.1-1.4.6-1.6,1.1l-1-.6c.4-1.1,1.4-1.7,2.6-1.7s2.7.9,2.7,2.2-.5,1.5-1.1,1.8c.8.3,1.3,1,1.3,1.9,0,1.3-1.1,2.3-2.7,2.3s-2.3-.7-2.8-1.8l1-.6Z"/>
                </g>
              </g>
              <g class="st1">
                <g class="st1">
                  <path class="st4" d="M110.4,91.2h-1.5v-1.1h2.7v8h-1.2v-6.8Z"/>
                  <path class="st4" d="M114.9,96.5l-.9,3h-1l.7-3h1.2Z"/>
                  <path class="st4" d="M118.6,89.9c1.6,0,2.7,1,2.7,2.4s-1.2,2.2-2.2,3c-.7.5-1.5,1.2-1.6,1.5h3.9v1.2h-5.3v-.5c0-1.4,1.3-2.3,2.3-3,1-.8,1.6-1.2,1.6-2s-.6-1.3-1.4-1.3-1.3.4-1.6,1.2l-1-.5c.4-1.1,1.5-1.9,2.6-1.9Z"/>
                  <path class="st4" d="M123.4,95.8c.3.7.9,1.2,1.7,1.2s1.4-.5,1.4-1.2-.7-1.3-1.6-1.3h-1v-1.1h1c.8,0,1.4-.4,1.4-1.2s-.6-1.1-1.4-1.1-1.4.6-1.6,1.1l-1-.6c.4-1.1,1.4-1.7,2.6-1.7s2.7.9,2.7,2.2-.5,1.5-1.1,1.8c.8.3,1.3,1,1.3,1.9,0,1.3-1.1,2.3-2.7,2.3s-2.3-.7-2.8-1.8l1-.6Z"/>
                  <path class="st4" d="M129,94.3c0-2.6,1.1-4.4,3.6-4.4s1.4.2,1.9.5l-.4,1c-.5-.3-1-.4-1.5-.4-1.4,0-2.3.8-2.4,2.7.4-.7,1.3-.9,2-.9,1.3,0,2.8.8,2.8,2.6s-1.2,2.7-2.8,2.7-3.1-1.7-3.1-3.8ZM130.4,95.4c0,1,.7,1.6,1.6,1.6s1.6-.6,1.6-1.6-.6-1.6-1.7-1.6-1.6.6-1.6,1.5Z"/>
                </g>
              </g>
              <g class="st1">
                <g class="st1">
                  <path class="st2" d="M109,139.9l3.5-4.9h1.5v4.8h1.2v1.1h-1.2v2.1h-1.2v-2.1h-3.8v-1ZM110.4,139.9h2.3v-3.3l-2.3,3.3Z"/>
                  <path class="st2" d="M116.1,140.8c0-.9.4-1.6,1.4-2-.7-.4-1.1-1-1.1-1.7,0-1.3,1-2.2,2.6-2.2s2.6.9,2.6,2.2-.3,1.4-1.1,1.7c1,.4,1.4,1.1,1.4,1.9,0,1.4-1.2,2.3-2.9,2.3s-2.9-.9-2.9-2.3ZM117.3,140.7c0,.8.7,1.3,1.7,1.3s1.7-.6,1.7-1.3-.7-1.3-1.7-1.3-1.7.5-1.7,1.3ZM119,138.3c.8,0,1.4-.5,1.4-1.2s-.5-1.1-1.4-1.1-1.4.5-1.4,1.1.5,1.2,1.4,1.2Z"/>
                  <path class="st2" d="M122.9,137.6c0-1.7,1.2-2.7,2.9-2.7s3.1,1.7,3.1,3.8-1.1,4.4-3.6,4.4-1.5-.2-2-.5l.4-1c.5.3,1,.5,1.5.5,1.3,0,2.3-.9,2.4-2.7-.4.6-1.1.9-1.9.9-1.7,0-2.8-1-2.8-2.6ZM124.1,137.6c0,1,.6,1.6,1.6,1.6s1.6-.8,1.6-1.5-.6-1.6-1.6-1.6-1.7.6-1.7,1.6Z"/>
                </g>
              </g>
              <g class="st1">
                <g class="st1">
                  <path class="st4" d="M110.4,156.2h-1.5v-1.1h2.7v8h-1.2v-6.8Z"/>
                  <path class="st4" d="M114.9,161.5l-.9,3h-1l.7-3h1.2Z"/>
                  <path class="st4" d="M118.6,154.9c1.6,0,2.7,1,2.7,2.4s-1.2,2.2-2.2,3c-.7.5-1.5,1.2-1.6,1.5h3.9v1.2h-5.3v-.5c0-1.4,1.3-2.3,2.3-3,1-.8,1.6-1.2,1.6-2s-.6-1.3-1.4-1.3-1.3.4-1.6,1.2l-1-.5c.4-1.1,1.5-1.9,2.6-1.9Z"/>
                  <path class="st4" d="M123.7,156.2h-1.5v-1.1h2.7v8h-1.2v-6.8Z"/>
                  <path class="st4" d="M129,154.9c1.6,0,2.7,1,2.7,2.4s-1.2,2.2-2.2,3c-.7.5-1.5,1.2-1.6,1.5h3.9v1.2h-5.3v-.5c0-1.4,1.3-2.3,2.3-3,1-.8,1.6-1.2,1.6-2s-.6-1.3-1.4-1.3-1.3.4-1.6,1.2l-1-.5c.4-1.1,1.5-1.9,2.6-1.9Z"/>
                </g>
              </g>
              <g class="st1">
                <g class="st1">
                  <path class="st2" d="M110.2,205.8c.3.7.9,1.2,1.7,1.2s1.4-.5,1.4-1.2-.7-1.3-1.6-1.3h-1v-1.1h1c.8,0,1.4-.4,1.4-1.2s-.6-1.1-1.4-1.1-1.4.6-1.6,1.1l-1-.6c.4-1.1,1.4-1.7,2.6-1.7s2.7.9,2.7,2.2-.5,1.5-1.1,1.8c.8.3,1.3,1,1.3,1.9,0,1.3-1.1,2.3-2.7,2.3s-2.3-.7-2.8-1.8l1-.6Z"/>
                  <path class="st2" d="M120.7,200v1c-1.4,2.3-2.5,4.6-3.3,6.9h-1.3c.7-2.2,1.8-4.6,3.2-6.8h-3.7v-1.2h5.1Z"/>
                  <path class="st2" d="M126.4,200v1c-1.4,2.3-2.5,4.6-3.3,6.9h-1.3c.7-2.2,1.8-4.6,3.2-6.8h-3.7v-1.2h5.1Z"/>
                </g>
              </g>
              <g class="st1">
                <g class="st1">
                  <path class="st4" d="M110.4,221.2h-1.5v-1.1h2.7v8h-1.2v-6.8Z"/>
                  <path class="st4" d="M113.3,224c0-2.5,1.2-4.1,3.2-4.1s3.2,1.6,3.2,4.1-1.2,4.1-3.2,4.1-3.2-1.6-3.2-4.1ZM114.5,224c0,1.8.8,2.9,1.9,2.9s1.9-1.1,1.9-2.9-.8-2.9-1.9-2.9-1.9,1.1-1.9,2.9Z"/>
                  <path class="st4" d="M125.5,220v1c-1.4,2.3-2.5,4.6-3.3,6.9h-1.3c.7-2.2,1.8-4.6,3.2-6.8h-3.7v-1.2h5.1Z"/>
                </g>
              </g>
              <g class="st1">
                <g class="st1">
                  <path class="st2" d="M111.8,264.9c1.6,0,2.7,1,2.7,2.4s-1.2,2.2-2.2,3c-.7.5-1.5,1.2-1.6,1.5h3.9v1.2h-5.3v-.5c0-1.4,1.3-2.3,2.3-3,1-.8,1.6-1.2,1.6-2s-.6-1.3-1.4-1.3-1.3.4-1.6,1.2l-1-.5c.4-1.1,1.5-1.9,2.6-1.9Z"/>
                  <path class="st2" d="M115.6,267.6c0-1.7,1.2-2.7,2.9-2.7s3.1,1.7,3.1,3.8-1.1,4.4-3.6,4.4-1.5-.2-2-.5l.4-1c.5.3,1,.5,1.5.5,1.3,0,2.3-.9,2.4-2.7-.4.6-1.1.9-1.9.9-1.7,0-2.8-1-2.8-2.6ZM116.9,267.6c0,1,.6,1.6,1.6,1.6s1.6-.8,1.6-1.5-.6-1.6-1.6-1.6-1.7.6-1.7,1.6Z"/>
                  <path class="st2" d="M122.5,271.3l1-.6c.3.8.9,1.2,1.8,1.2s1.6-.6,1.6-1.5-.5-1.5-1.6-1.5-1.2.3-1.4.6l-.9-.4.4-4.1h4.4v1.2h-3.4l-.2,2.1c.2-.2.6-.4,1.2-.4,1.6,0,2.7,1,2.7,2.6s-1.3,2.6-2.9,2.6-2.3-.7-2.8-1.8Z"/>
                </g>
              </g>
              <g class="st1">
                <g class="st1">
                  <path class="st4" d="M109.2,287.6c0-1.7,1.2-2.7,2.9-2.7s3.1,1.7,3.1,3.8-1.1,4.4-3.6,4.4-1.5-.2-2-.5l.4-1c.5.3,1,.5,1.5.5,1.3,0,2.3-.9,2.4-2.7-.4.6-1.1.9-1.9.9-1.7,0-2.8-1-2.8-2.6ZM110.4,287.6c0,1,.6,1.6,1.6,1.6s1.6-.8,1.6-1.5-.6-1.6-1.6-1.6-1.7.6-1.7,1.6Z"/>
                  <path class="st4" d="M118.7,284.9c1.6,0,2.7,1,2.7,2.4s-1.2,2.2-2.2,3c-.7.5-1.5,1.2-1.6,1.5h3.9v1.2h-5.3v-.5c0-1.4,1.3-2.3,2.3-3,1-.8,1.6-1.2,1.6-2s-.6-1.3-1.4-1.3-1.3.4-1.6,1.2l-1-.5c.4-1.1,1.5-1.9,2.6-1.9Z"/>
                </g>
              </g>
              <g class="st1">
                <g class="st1">
                  <path class="st2" d="M111.8,329.9c1.6,0,2.7,1,2.7,2.4s-1.2,2.2-2.2,3c-.7.5-1.5,1.2-1.6,1.5h3.9v1.2h-5.3v-.5c0-1.4,1.3-2.3,2.3-3,1-.8,1.6-1.2,1.6-2s-.6-1.3-1.4-1.3-1.3.4-1.6,1.2l-1-.5c.4-1.1,1.5-1.9,2.6-1.9Z"/>
                  <path class="st2" d="M115.7,334c0-2.5,1.2-4.1,3.2-4.1s3.2,1.6,3.2,4.1-1.2,4.1-3.2,4.1-3.2-1.6-3.2-4.1ZM117,334c0,1.8.8,2.9,1.9,2.9s1.9-1.1,1.9-2.9-.8-2.9-1.9-2.9-1.9,1.1-1.9,2.9Z"/>
                  <path class="st2" d="M122.9,334.9l3.5-4.9h1.5v4.8h1.2v1.1h-1.2v2.1h-1.2v-2.1h-3.8v-1ZM124.3,334.9h2.3v-3.3l-2.3,3.3Z"/>
                </g>
              </g>
              <g class="st1">
                <g class="st1">
                  <path class="st8" d="M122.5,349.9c1.6,0,2.7,1,2.7,2.4s-1.2,2.2-2.2,3c-.7.5-1.5,1.2-1.6,1.5h3.9v1.2h-5.3v-.5c0-1.4,1.3-2.3,2.3-3,1-.8,1.6-1.2,1.6-2s-.6-1.3-1.4-1.3-1.3.4-1.6,1.2l-1-.5c.4-1.1,1.5-1.9,2.6-1.9Z"/>
                  <path class="st8" d="M126.2,354.9l3.5-4.9h1.5v4.8h1.2v1.1h-1.2v2.1h-1.2v-2.1h-3.8v-1ZM127.6,354.9h2.3v-3.3l-2.3,3.3Z"/>
                </g>
              </g>
              <g class="st1">
                <g class="st1">
                  <path class="st8" d="M112.7,394.9c1.6,0,2.7,1,2.7,2.4s-1.2,2.2-2.2,3c-.7.5-1.5,1.2-1.6,1.5h3.9v1.2h-5.3v-.5c0-1.4,1.3-2.3,2.3-3,1-.8,1.6-1.2,1.6-2s-.6-1.3-1.4-1.3-1.3.4-1.6,1.2l-1-.5c.4-1.1,1.5-1.9,2.6-1.9Z"/>
                </g>
              </g>
              <g class="st1">
                <g class="st1">
                  <path class="st8" d="M109.5,419c0-2.5,1.2-4.1,3.2-4.1s3.2,1.6,3.2,4.1-1.2,4.1-3.2,4.1-3.2-1.6-3.2-4.1ZM110.8,419c0,1.8.8,2.9,1.9,2.9s1.9-1.1,1.9-2.9-.8-2.9-1.9-2.9-1.9,1.1-1.9,2.9Z"/>
                  <path class="st8" d="M117.4,421.7c.4,0,.7.3.7.7s-.3.7-.7.7-.7-.3-.7-.7.3-.7.7-.7Z"/>
                  <path class="st8" d="M119,421.3l1-.6c.3.8.9,1.2,1.8,1.2s1.6-.6,1.6-1.5-.5-1.5-1.6-1.5-1.2.3-1.4.6l-.9-.4.4-4.1h4.4v1.2h-3.4l-.2,2.1c.2-.2.6-.4,1.2-.4,1.6,0,2.7,1,2.7,2.6s-1.3,2.6-2.9,2.6-2.3-.7-2.8-1.8Z"/>
                </g>
              </g>
            </g>
          </g>
        </g>
        <g id="container-svg_container-footer-svg_datawrapper-3gBHp-1la8dcw-svg">
          <g class="st1">
            <g class="st1">
              <path class="st6" d="M4.2,451.6c1.3,0,2.5.6,3.2,1.8l-.9.6c-.6-.9-1.4-1.3-2.3-1.3-1.5,0-2.6,1.1-2.6,2.7s1.1,2.7,2.6,2.7,1.8-.5,2.4-1.3l.8.6c-.7,1.1-1.9,1.8-3.2,1.8-2.1,0-3.8-1.6-3.8-3.8s1.6-3.8,3.7-3.8Z"/>
              <path class="st6" d="M8.5,459v-7.6h1.1v3.1c.2-.3.7-.8,1.6-.8,1.4,0,2.1.9,2.1,2.1v3.1h-1.1v-2.9c0-.9-.5-1.3-1.2-1.3s-1.4.5-1.4,1.3v2.9h-1.1Z"/>
              <path class="st6" d="M16.8,455.9c.6,0,1.1.1,1.3.2v-.3c0-.6-.5-1.1-1.3-1.1s-1.2.4-1.5.7l-.7-.7c.4-.5,1.2-1,2.2-1,1.5,0,2.4.8,2.4,2v3.2h-1v-.7c-.3.5-.9.8-1.6.8-1.1,0-2-.6-2-1.6s.9-1.6,2.3-1.6ZM16.7,458.2c.8,0,1.4-.6,1.4-1.3-.2-.1-.7-.2-1.3-.2s-1.2.2-1.2.8.5.7,1.1.7Z"/>
              <path class="st6" d="M20.8,459v-5.2h1.1v.7c.3-.6.8-.8,1.3-.8s.7.1.7.1v1c-.2,0-.4-.1-.7-.1-.6,0-1.3.3-1.3,1.5v2.8h-1.1Z"/>
              <path class="st6" d="M24.3,454.7v-.9h.9v-1.7h1v1.7h1.6v.9h-1.6v2.6c0,.5.3.8.8.8s.6,0,.8-.2v.9c-.1.1-.6.2-1,.2-1.1,0-1.8-.6-1.8-1.7v-2.7h-.9Z"/>
              <path class="st6" d="M29,458.5c0-.2,0-.3.2-.4.1-.1.3-.2.5-.2s.4,0,.5.2c.1.1.2.3.2.4s0,.3-.2.4c-.1.1-.3.2-.5.2s-.4,0-.5-.2c-.1-.1-.2-.2-.2-.4ZM29,453.7c0-.2,0-.3.2-.4.1-.1.3-.2.5-.2s.4,0,.5.2c.1.1.2.3.2.4s0,.3-.2.4c-.1.1-.3.2-.5.2s-.4,0-.5-.2c-.1-.1-.2-.2-.2-.4Z"/>
            </g>
            <g class="st1">
              <path class="st6" d="M34.3,451.7v3.1h4v-3.1h1.1v7.3h-1.1v-3.2h-4v3.2h-1.1v-7.3h1.1Z"/>
              <path class="st6" d="M43,455.9c.6,0,1.1.1,1.3.2v-.3c0-.6-.5-1.1-1.3-1.1s-1.2.4-1.5.7l-.7-.7c.4-.5,1.2-1,2.2-1,1.5,0,2.4.8,2.4,2v3.2h-1v-.7c-.3.5-.9.8-1.6.8-1.1,0-2-.6-2-1.6s.9-1.6,2.3-1.6ZM42.9,458.2c.8,0,1.4-.6,1.4-1.3-.2-.1-.7-.2-1.3-.2s-1.2.2-1.2.8.5.7,1.1.7Z"/>
              <path class="st6" d="M46.6,458.1l2.7-3.4h-2.6v-.9h3.8v.9l-2.7,3.4h2.8v.9h-4v-.9Z"/>
              <path class="st6" d="M54,453.7c1.5,0,2.5,1.1,2.5,2.5s0,.3,0,.5h-4c0,.8.7,1.4,1.6,1.4s1.2-.3,1.5-.9l.8.6c-.5.9-1.4,1.3-2.3,1.3-1.6,0-2.7-1.1-2.7-2.7s1.1-2.7,2.7-2.7ZM55.4,455.9c0-.7-.7-1.2-1.4-1.2s-1.4.5-1.5,1.2h2.9Z"/>
              <path class="st6" d="M58.8,459h-1.1v-7.6h1.1v7.6Z"/>
              <path class="st6" d="M62.6,455.4c0-2.1,1.6-3.8,3.7-3.8s2.4.6,3.1,1.7l-.9.6c-.6-.8-1.3-1.2-2.2-1.2-1.5,0-2.6,1.1-2.6,2.7s1.1,2.7,2.6,2.7,2.2-.8,2.3-1.8h-2.5v-1h3.7c0,.1,0,.3,0,.4,0,1.9-1.3,3.5-3.5,3.5s-3.8-1.6-3.8-3.8Z"/>
              <path class="st6" d="M73.1,455.9c.6,0,1.1.1,1.3.2v-.3c0-.6-.5-1.1-1.3-1.1s-1.2.4-1.5.7l-.7-.7c.4-.5,1.2-1,2.2-1,1.5,0,2.4.8,2.4,2v3.2h-1v-.7c-.3.5-.9.8-1.6.8-1.1,0-2-.6-2-1.6s.9-1.6,2.3-1.6ZM73,458.2c.8,0,1.4-.6,1.4-1.3-.2-.1-.7-.2-1.3-.2s-1.2.2-1.2.8.5.7,1.1.7Z"/>
              <path class="st6" d="M77,459v-5.2h1.1v.7c.2-.3.7-.8,1.6-.8,1.4,0,2.2.9,2.2,2.1v3.1h-1.1v-2.9c0-.9-.5-1.3-1.3-1.3s-1.4.5-1.4,1.3v2.9h-1.1Z"/>
              <path class="st6" d="M85.6,453.7c.9,0,1.5.3,1.8.8v-3.1h1.1v7.6h-1.1v-.7c-.4.5-1,.8-1.8.8-1.5,0-2.6-1.1-2.6-2.7s1.1-2.7,2.6-2.7ZM84.1,456.4c0,1,.7,1.8,1.7,1.8s1.7-.8,1.7-1.8-.7-1.7-1.7-1.7-1.7.8-1.7,1.7Z"/>
              <path class="st6" d="M90.1,459v-7.6h1.1v3.1c.2-.3.7-.8,1.6-.8,1.4,0,2.1.9,2.1,2.1v3.1h-1.1v-2.9c0-.9-.5-1.3-1.2-1.3s-1.4.5-1.4,1.3v2.9h-1.1Z"/>
              <path class="st6" d="M97,451.5c.4,0,.7.3.7.7s-.3.7-.7.7-.7-.3-.7-.7.3-.7.7-.7ZM96.5,459v-5.2h1.1v5.2h-1.1Z"/>
            </g>
            <g class="st1">
              <path class="st6" d="M100.6,454.9c0-.3,0-.6.3-.8.2-.2.5-.3.8-.3s.6,0,.8.3.3.5.3.8v.2c0,.3,0,.6-.3.8s-.5.3-.8.3-.6,0-.8-.3-.3-.5-.3-.8v-.2Z"/>
            </g>
            <g class="st1">
              <path class="st6" d="M109.6,455.5c-.9-.3-1.5-.6-1.9-.9-.4-.4-.6-.8-.6-1.4s.2-1.1.7-1.5c.5-.4,1.1-.6,1.9-.6s1,.1,1.4.3c.4.2.7.5,1,.9.2.4.3.8.3,1.2h-1c0-.5-.2-.8-.5-1.1s-.7-.4-1.3-.4-.9.1-1.2.3c-.3.2-.4.5-.4.9s.1.6.4.8c.3.2.7.4,1.4.6.6.2,1.2.4,1.5.6.4.2.6.5.8.8.2.3.3.6.3,1,0,.6-.2,1.1-.7,1.5-.5.4-1.2.6-2,.6s-1-.1-1.5-.3-.8-.5-1.1-.8c-.3-.4-.4-.8-.4-1.2h1c0,.5.2.8.5,1.1.3.3.8.4,1.4.4s1-.1,1.3-.3c.3-.2.4-.5.4-.9s-.1-.7-.4-.9c-.3-.2-.8-.4-1.5-.6Z"/>
              <path class="st6" d="M113.4,456c0-.6.1-1.1.3-1.5.2-.5.5-.8.9-1.1.4-.2.9-.4,1.4-.4.8,0,1.4.3,1.9.8.5.5.7,1.3.7,2.2h0c0,.6-.1,1.1-.3,1.6-.2.4-.5.8-.9,1-.4.3-.9.4-1.4.4-.8,0-1.4-.3-1.9-.8-.5-.5-.7-1.3-.7-2.2h0ZM114.4,456.2c0,.6.1,1.2.4,1.6.3.4.7.6,1.2.6s.9-.2,1.2-.6.4-1,.4-1.7-.2-1.2-.5-1.5c-.3-.4-.7-.6-1.2-.6s-.9.2-1.2.6c-.3.4-.5.9-.5,1.7Z"/>
              <path class="st6" d="M123.5,458.4c-.4.5-1,.7-1.7.7s-1.1-.2-1.4-.5c-.3-.4-.5-.9-.5-1.6v-3.8h1v3.8c0,.9.4,1.3,1.1,1.3s1.3-.3,1.5-.8v-4.2h1v5.8h-.9v-.6Z"/>
              <path class="st6" d="M128.8,454.1c-.2,0-.3,0-.5,0-.7,0-1.1.3-1.3.8v4.1h-1v-5.8h1v.7c.3-.5.8-.8,1.4-.8s.3,0,.4,0v.9Z"/>
              <path class="st6" d="M131.9,458.3c.4,0,.7-.1.9-.3s.4-.5.4-.8h.9c0,.3-.1.7-.3,1s-.5.5-.8.7c-.4.2-.7.3-1.1.3-.8,0-1.4-.3-1.9-.8-.5-.5-.7-1.3-.7-2.2v-.2c0-.6.1-1.1.3-1.5.2-.4.5-.8.9-1,.4-.2.8-.4,1.4-.4s1.2.2,1.6.6c.4.4.7.9.7,1.5h-.9c0-.4-.2-.7-.4-.9-.3-.2-.6-.4-.9-.4s-.9.2-1.2.5c-.3.4-.4.9-.4,1.6v.2c0,.7.1,1.2.4,1.5s.7.5,1.2.5Z"/>
              <path class="st6" d="M137.7,459.1c-.8,0-1.4-.3-1.9-.8s-.7-1.2-.7-2.1v-.2c0-.6.1-1.1.3-1.5.2-.5.5-.8.9-1.1.4-.3.8-.4,1.3-.4.8,0,1.3.2,1.8.7.4.5.6,1.2.6,2.1v.4h-3.9c0,.6.2,1,.5,1.4.3.4.7.5,1.2.5s.6,0,.9-.2c.2-.1.5-.3.6-.6l.6.5c-.5.7-1.2,1.1-2.2,1.1ZM137.6,453.9c-.4,0-.7.1-1,.4s-.4.7-.5,1.2h2.9c0-.6-.2-1-.4-1.2s-.6-.4-1-.4Z"/>
              <path class="st6" d="M141.1,458.5c0-.2,0-.3.2-.4.1-.1.3-.2.5-.2s.4,0,.5.2c.1.1.2.3.2.4s0,.3-.2.4c-.1.1-.3.2-.5.2s-.4,0-.5-.2c-.1-.1-.2-.2-.2-.4ZM141.1,453.7c0-.2,0-.3.2-.4.1-.1.3-.2.5-.2s.4,0,.5.2c.1.1.2.3.2.4s0,.3-.2.4c-.1.1-.3.2-.5.2s-.4,0-.5-.2c-.1-.1-.2-.2-.2-.4Z"/>
            </g>
            <g class="st1">
              <path class="st6" d="M147.9,451.7v3.1h4v-3.1h1.1v7.3h-1.1v-3.2h-4v3.2h-1.1v-7.3h1.1Z"/>
              <path class="st6" d="M155.3,451.5c.4,0,.7.3.7.7s-.3.7-.7.7-.7-.3-.7-.7.3-.7.7-.7ZM154.7,459v-5.2h1.1v5.2h-1.1Z"/>
              <path class="st6" d="M157.4,459v-5.2h1.1v.7c.2-.3.7-.8,1.6-.8,1.4,0,2.2.9,2.2,2.1v3.1h-1.1v-2.9c0-.9-.5-1.3-1.3-1.3s-1.4.5-1.4,1.3v2.9h-1.1Z"/>
              <path class="st6" d="M163.5,456.4c0-1.6,1.1-2.7,2.6-2.7s1.5.3,1.8.8v-.7h1.1v4.8c0,1.6-1.1,2.7-2.8,2.7s-1.8-.4-2.4-1.1l.7-.7c.5.5,1,.8,1.7.8,1.1,0,1.8-.6,1.8-1.6v-.4c-.4.5-1,.8-1.8.8-1.5,0-2.6-1.1-2.6-2.7ZM164.5,456.4c0,1,.7,1.8,1.7,1.8s1.7-.8,1.7-1.8-.7-1.7-1.7-1.7-1.7.8-1.7,1.7Z"/>
              <path class="st6" d="M172.8,453.7c1.5,0,2.5,1.1,2.5,2.5s0,.3,0,.5h-4c0,.8.7,1.4,1.6,1.4s1.2-.3,1.5-.9l.8.6c-.5.9-1.4,1.3-2.3,1.3-1.6,0-2.7-1.1-2.7-2.7s1.1-2.7,2.7-2.7ZM174.2,455.9c0-.7-.7-1.2-1.4-1.2s-1.4.5-1.5,1.2h2.9Z"/>
              <path class="st6" d="M181.3,453.7c.9,0,1.5.3,1.8.8v-3.1h1.1v7.6h-1.1v-.7c-.4.5-1,.8-1.8.8-1.5,0-2.6-1.1-2.6-2.7s1.1-2.7,2.6-2.7ZM179.8,456.4c0,1,.7,1.8,1.7,1.8s1.7-.8,1.7-1.8-.7-1.7-1.7-1.7-1.7.8-1.7,1.7Z"/>
              <path class="st6" d="M187.8,455.9c.6,0,1.1.1,1.3.2v-.3c0-.6-.5-1.1-1.3-1.1s-1.2.4-1.5.7l-.7-.7c.4-.5,1.2-1,2.2-1,1.5,0,2.4.8,2.4,2v3.2h-1v-.7c-.3.5-.9.8-1.6.8-1.1,0-2-.6-2-1.6s.9-1.6,2.3-1.6ZM187.7,458.2c.8,0,1.4-.6,1.4-1.3-.2-.1-.7-.2-1.3-.2s-1.2.2-1.2.8.5.7,1.1.7Z"/>
              <path class="st6" d="M191.1,454.7v-.9h.9v-1.7h1v1.7h1.6v.9h-1.6v2.6c0,.5.3.8.8.8s.6,0,.8-.2v.9c-.1.1-.6.2-1,.2-1.1,0-1.8-.6-1.8-1.7v-2.7h-.9Z"/>
              <path class="st6" d="M197.8,455.9c.6,0,1.1.1,1.3.2v-.3c0-.6-.5-1.1-1.3-1.1s-1.2.4-1.5.7l-.7-.7c.4-.5,1.2-1,2.2-1,1.5,0,2.4.8,2.4,2v3.2h-1v-.7c-.3.5-.9.8-1.6.8-1.1,0-2-.6-2-1.6s.9-1.6,2.3-1.6ZM197.7,458.2c.8,0,1.4-.6,1.4-1.3-.2-.1-.7-.2-1.3-.2s-1.2.2-1.2.8.5.7,1.1.7Z"/>
              <path class="st6" d="M206.5,453.7c1.5,0,2.5,1.1,2.5,2.5s0,.3,0,.5h-4c0,.8.7,1.4,1.6,1.4s1.2-.3,1.5-.9l.8.6c-.5.9-1.4,1.3-2.3,1.3-1.6,0-2.7-1.1-2.7-2.7s1.1-2.7,2.7-2.7ZM207.9,455.9c0-.7-.7-1.2-1.4-1.2s-1.4.5-1.5,1.2h2.9Z"/>
              <path class="st6" d="M211.3,456.4l-1.9-2.5h1.2l1.3,1.8,1.3-1.8h1.2l-1.9,2.5,1.9,2.6h-1.2l-1.4-1.9-1.4,1.9h-1.2l1.9-2.6Z"/>
              <path class="st6" d="M215.6,453.8h1.1v.7c.4-.5,1-.8,1.8-.8,1.5,0,2.6,1.1,2.6,2.7s-1.1,2.7-2.6,2.7-1.5-.3-1.8-.8v2.9h-1.1v-7.3ZM218.3,458.2c1,0,1.7-.8,1.7-1.7s-.7-1.8-1.7-1.8-1.7.8-1.7,1.8.7,1.7,1.7,1.7Z"/>
              <path class="st6" d="M221.9,456.4c0-1.5,1.2-2.7,2.7-2.7s2.7,1.2,2.7,2.7-1.2,2.7-2.7,2.7-2.7-1.2-2.7-2.7ZM224.7,458.1c1,0,1.7-.7,1.7-1.7s-.7-1.7-1.7-1.7-1.7.7-1.7,1.7.7,1.7,1.7,1.7Z"/>
              <path class="st6" d="M228.7,459v-5.2h1.1v.7c.3-.6.8-.8,1.3-.8s.7.1.7.1v1c-.2,0-.4-.1-.7-.1-.6,0-1.3.3-1.3,1.5v2.8h-1.1Z"/>
              <path class="st6" d="M232.2,454.7v-.9h.9v-1.7h1v1.7h1.6v.9h-1.6v2.6c0,.5.3.8.8.8s.6,0,.8-.2v.9c-.1.1-.6.2-1,.2-1.1,0-1.8-.6-1.8-1.7v-2.7h-.9Z"/>
              <path class="st6" d="M239.2,453.7c1.5,0,2.5,1.1,2.5,2.5s0,.3,0,.5h-4c0,.8.7,1.4,1.6,1.4s1.2-.3,1.5-.9l.8.6c-.5.9-1.4,1.3-2.3,1.3-1.6,0-2.7-1.1-2.7-2.7s1.1-2.7,2.7-2.7ZM240.6,455.9c0-.7-.7-1.2-1.4-1.2s-1.4.5-1.5,1.2h2.9Z"/>
              <path class="st6" d="M245.1,453.7c.9,0,1.5.3,1.8.8v-3.1h1.1v7.6h-1.1v-.7c-.4.5-1,.8-1.8.8-1.5,0-2.6-1.1-2.6-2.7s1.1-2.7,2.6-2.7ZM243.6,456.4c0,1,.7,1.8,1.7,1.8s1.7-.8,1.7-1.8-.7-1.7-1.7-1.7-1.7.8-1.7,1.7Z"/>
              <path class="st6" d="M252.2,451.4h1.1v3.1c.4-.5,1-.8,1.8-.8,1.5,0,2.6,1.1,2.6,2.7s-1.1,2.7-2.6,2.7-1.5-.3-1.8-.8v.7h-1.1v-7.6ZM254.9,458.2c1,0,1.7-.8,1.7-1.8s-.7-1.7-1.7-1.7-1.7.8-1.7,1.7.7,1.8,1.7,1.8Z"/>
              <path class="st6" d="M258.1,453.8h1.2l1.6,4.1,1.6-4.1h1.2l-2.5,5.8c-.4,1-.9,1.6-2.1,1.6s-.8-.1-.9-.2v-.9c.3,0,.5.1.8.1.7,0,1-.3,1.2-1v-.3c.1,0-2.1-5.2-2.1-5.2Z"/>
              <path class="st6" d="M267.9,453.8v2.9c0,.9.5,1.3,1.3,1.3s1.5-.5,1.5-1.3v-2.9h1.1v5.2h-1.1v-.7c-.2.3-.7.8-1.6.8-1.4,0-2.2-.9-2.2-2.1v-3.1h1.1Z"/>
              <path class="st6" d="M273.7,457.3c.3.5.8.9,1.4.9s1-.2,1-.6-.3-.5-1.1-.7c-1.1-.2-1.9-.6-1.9-1.6s.9-1.5,1.9-1.5,1.7.5,2,1.1l-.7.6c-.3-.4-.7-.7-1.3-.7s-.9.2-.9.5.4.5,1.1.7c1.1.3,1.9.6,1.9,1.6s-.9,1.5-2,1.5-1.8-.5-2.2-1.2l.8-.6Z"/>
              <path class="st6" d="M280.8,453.7c1.5,0,2.5,1.1,2.5,2.5s0,.3,0,.5h-4c0,.8.7,1.4,1.6,1.4s1.2-.3,1.5-.9l.8.6c-.5.9-1.4,1.3-2.3,1.3-1.6,0-2.7-1.1-2.7-2.7s1.1-2.7,2.7-2.7ZM282.2,455.9c0-.7-.7-1.2-1.4-1.2s-1.4.5-1.5,1.2h2.9Z"/>
              <path class="st6" d="M284.5,459v-5.2h1.1v.7c.3-.6.8-.8,1.3-.8s.7.1.7.1v1c-.2,0-.4-.1-.7-.1-.6,0-1.3.3-1.3,1.5v2.8h-1.1Z"/>
              <path class="st6" d="M288.9,457.3c.3.5.8.9,1.4.9s1-.2,1-.6-.3-.5-1.1-.7c-1.1-.2-1.9-.6-1.9-1.6s.9-1.5,1.9-1.5,1.7.5,2,1.1l-.7.6c-.3-.4-.7-.7-1.3-.7s-.9.2-.9.5.4.5,1.1.7c1.1.3,1.9.6,1.9,1.6s-.9,1.5-2,1.5-1.8-.5-2.2-1.2l.8-.6Z"/>
            </g>
            <g class="st1">
              <path class="st6" d="M292.2,454.9c0-.3,0-.6.3-.8.2-.2.5-.3.8-.3s.6,0,.8.3.3.5.3.8v.2c0,.3,0,.6-.3.8s-.5.3-.8.3-.6,0-.8-.3-.3-.5-.3-.8v-.2Z"/>
            </g>
            <g class="st1">
              <path class="st6" d="M304.6,451.6c1.3,0,2.5.6,3.2,1.8l-.9.6c-.6-.9-1.4-1.3-2.3-1.3-1.5,0-2.6,1.1-2.6,2.7s1.1,2.7,2.6,2.7,1.8-.5,2.4-1.3l.8.6c-.7,1.1-1.9,1.8-3.2,1.8-2.1,0-3.8-1.6-3.8-3.8s1.6-3.8,3.7-3.8Z"/>
              <path class="st6" d="M309,459v-5.2h1.1v.7c.3-.6.8-.8,1.3-.8s.7.1.7.1v1c-.2,0-.4-.1-.7-.1-.6,0-1.3.3-1.3,1.5v2.8h-1.1Z"/>
              <path class="st6" d="M315.2,453.7c1.5,0,2.5,1.1,2.5,2.5s0,.3,0,.5h-4c0,.8.7,1.4,1.6,1.4s1.2-.3,1.5-.9l.8.6c-.5.9-1.4,1.3-2.3,1.3-1.6,0-2.7-1.1-2.7-2.7s1.1-2.7,2.7-2.7ZM316.6,455.9c0-.7-.7-1.2-1.4-1.2s-1.4.5-1.5,1.2h2.9Z"/>
              <path class="st6" d="M320.9,455.9c.6,0,1.1.1,1.3.2v-.3c0-.6-.5-1.1-1.3-1.1s-1.2.4-1.5.7l-.7-.7c.4-.5,1.2-1,2.2-1,1.5,0,2.4.8,2.4,2v3.2h-1v-.7c-.3.5-.9.8-1.6.8-1.1,0-2-.6-2-1.6s.9-1.6,2.3-1.6ZM320.7,458.2c.8,0,1.4-.6,1.4-1.3-.2-.1-.7-.2-1.3-.2s-1.2.2-1.2.8.5.7,1.1.7Z"/>
              <path class="st6" d="M324.1,454.7v-.9h.9v-1.7h1v1.7h1.6v.9h-1.6v2.6c0,.5.3.8.8.8s.6,0,.8-.2v.9c-.1.1-.6.2-1,.2-1.1,0-1.8-.6-1.8-1.7v-2.7h-.9Z"/>
              <path class="st6" d="M331.1,453.7c1.5,0,2.5,1.1,2.5,2.5s0,.3,0,.5h-4c0,.8.7,1.4,1.6,1.4s1.2-.3,1.5-.9l.8.6c-.5.9-1.4,1.3-2.3,1.3-1.6,0-2.7-1.1-2.7-2.7s1.1-2.7,2.7-2.7ZM332.5,455.9c0-.7-.7-1.2-1.4-1.2s-1.4.5-1.5,1.2h2.9Z"/>
              <path class="st6" d="M337.1,453.7c.9,0,1.5.3,1.8.8v-3.1h1.1v7.6h-1.1v-.7c-.4.5-1,.8-1.8.8-1.5,0-2.6-1.1-2.6-2.7s1.1-2.7,2.6-2.7ZM335.5,456.4c0,1,.7,1.8,1.7,1.8s1.7-.8,1.7-1.8-.7-1.7-1.7-1.7-1.7.8-1.7,1.7Z"/>
              <path class="st6" d="M343.5,453.8h1.1l1.1,4.1,1.2-4.1h1.1l1.2,4.1,1.1-4.1h1.1l-1.5,5.2h-1.5l-1.1-3.7-1.1,3.7h-1.5l-1.5-5.2Z"/>
              <path class="st6" d="M353.1,451.5c.4,0,.7.3.7.7s-.3.7-.7.7-.7-.3-.7-.7.3-.7.7-.7ZM352.6,459v-5.2h1.1v5.2h-1.1Z"/>
              <path class="st6" d="M354.7,454.7v-.9h.9v-1.7h1v1.7h1.6v.9h-1.6v2.6c0,.5.3.8.8.8s.6,0,.8-.2v.9c-.1.1-.6.2-1,.2-1.1,0-1.8-.6-1.8-1.7v-2.7h-.9Z"/>
              <path class="st6" d="M359.5,459v-7.6h1.1v3.1c.2-.3.7-.8,1.6-.8,1.4,0,2.1.9,2.1,2.1v3.1h-1.1v-2.9c0-.9-.5-1.3-1.2-1.3s-1.4.5-1.4,1.3v2.9h-1.1Z"/>
            </g>
            <g class="st1">
              <path class="st6" d="M366.1,451.7c2.2,0,3.7,1.6,3.7,3.6s-1.6,3.6-3.7,3.6h-2.9v-7.3h2.9ZM366.1,458c1.6,0,2.6-1.1,2.6-2.6s-1-2.6-2.6-2.6h-1.8v5.3h1.8Z"/>
              <path class="st6" d="M373.1,455.9c.6,0,1.1.1,1.3.2v-.3c0-.6-.5-1.1-1.3-1.1s-1.2.4-1.5.7l-.7-.7c.4-.5,1.2-1,2.2-1,1.5,0,2.4.8,2.4,2v3.2h-1v-.7c-.3.5-.9.8-1.6.8-1.1,0-2-.6-2-1.6s.9-1.6,2.3-1.6ZM373,458.2c.8,0,1.4-.6,1.4-1.3-.2-.1-.7-.2-1.3-.2s-1.2.2-1.2.8.5.7,1.1.7Z"/>
              <path class="st6" d="M376.4,454.7v-.9h.9v-1.7h1v1.7h1.6v.9h-1.6v2.6c0,.5.3.8.8.8s.6,0,.8-.2v.9c-.1.1-.6.2-1,.2-1.1,0-1.8-.6-1.8-1.7v-2.7h-.9Z"/>
              <path class="st6" d="M383.1,455.9c.6,0,1.1.1,1.3.2v-.3c0-.6-.5-1.1-1.3-1.1s-1.2.4-1.5.7l-.7-.7c.4-.5,1.2-1,2.2-1,1.5,0,2.4.8,2.4,2v3.2h-1v-.7c-.3.5-.9.8-1.6.8-1.1,0-2-.6-2-1.6s.9-1.6,2.3-1.6ZM383,458.2c.8,0,1.4-.6,1.4-1.3-.2-.1-.7-.2-1.3-.2s-1.2.2-1.2.8.5.7,1.1.7Z"/>
              <path class="st6" d="M386.4,453.8h1.1l1.1,4.1,1.2-4.1h1.1l1.2,4.1,1.1-4.1h1.1l-1.5,5.2h-1.5l-1.1-3.7-1.1,3.7h-1.5l-1.5-5.2Z"/>
              <path class="st6" d="M395.5,459v-5.2h1.1v.7c.3-.6.8-.8,1.3-.8s.7.1.7.1v1c-.2,0-.4-.1-.7-.1-.6,0-1.3.3-1.3,1.5v2.8h-1.1Z"/>
              <path class="st6" d="M401.4,455.9c.6,0,1.1.1,1.3.2v-.3c0-.6-.5-1.1-1.3-1.1s-1.2.4-1.5.7l-.7-.7c.4-.5,1.2-1,2.2-1,1.5,0,2.4.8,2.4,2v3.2h-1v-.7c-.3.5-.9.8-1.6.8-1.1,0-2-.6-2-1.6s.9-1.6,2.3-1.6ZM401.3,458.2c.8,0,1.4-.6,1.4-1.3-.2-.1-.7-.2-1.3-.2s-1.2.2-1.2.8.5.7,1.1.7Z"/>
              <path class="st6" d="M405.3,453.8h1.1v.7c.4-.5,1-.8,1.8-.8,1.5,0,2.6,1.1,2.6,2.7s-1.1,2.7-2.6,2.7-1.5-.3-1.8-.8v2.9h-1.1v-7.3ZM408.1,458.2c1,0,1.7-.8,1.7-1.7s-.7-1.8-1.7-1.8-1.7.8-1.7,1.8.7,1.7,1.7,1.7Z"/>
              <path class="st6" d="M412.1,453.8h1.1v.7c.4-.5,1-.8,1.8-.8,1.5,0,2.6,1.1,2.6,2.7s-1.1,2.7-2.6,2.7-1.5-.3-1.8-.8v2.9h-1.1v-7.3ZM414.9,458.2c1,0,1.7-.8,1.7-1.7s-.7-1.8-1.7-1.8-1.7.8-1.7,1.8.7,1.7,1.7,1.7Z"/>
              <path class="st6" d="M421.1,453.7c1.5,0,2.5,1.1,2.5,2.5s0,.3,0,.5h-4c0,.8.7,1.4,1.6,1.4s1.2-.3,1.5-.9l.8.6c-.5.9-1.4,1.3-2.3,1.3-1.6,0-2.7-1.1-2.7-2.7s1.1-2.7,2.7-2.7ZM422.5,455.9c0-.7-.7-1.2-1.4-1.2s-1.4.5-1.5,1.2h2.9Z"/>
              <path class="st6" d="M424.9,459v-5.2h1.1v.7c.3-.6.8-.8,1.3-.8s.7.1.7.1v1c-.2,0-.4-.1-.7-.1-.6,0-1.3.3-1.3,1.5v2.8h-1.1Z"/>
            </g>
          </g>
        </g>
      </g>
    </g>
  </g>
  <rect class="st0" x="-58" y="60" width="524" height="23"/>
  <g>
    <path d="M2.5,24.6h1c.9-.2,1.3-.4,1.3-.6v-15.5c0-.2-.2-.3-1.5-.4h-.7c0,0,0-.2,0-.2h8.2v.2c0,0-1.1.1-1.1.1-.9.1-1.3.3-1.3.5v7.4h7.6v-7.5c0-.2-.2-.3-1.5-.4h-.7c0,0,0-.2,0-.2h8.2v.2c0,0-1.1.1-1.1.1-.9.1-1.3.3-1.3.5v15.5c0,.2.2.3,1.5.4h.7c0,0,0,.2,0,.2h-8.2v-.2c0,0,1.1-.1,1.1-.1.9-.1,1.3-.3,1.3-.5v-7.7h-7.6v7.8c0,.2.2.3,1.5.4h.7c0,0,0,.2,0,.2H2.4v-.2Z"/>
    <path d="M21.9,19c0-3.4,2.7-6.2,6.5-6.2s6.4,2.7,6.4,6.1-2.6,6.2-6.5,6.2-6.4-2.8-6.4-6.2ZM31.4,19.1c0-2.8-.5-4.5-1.4-5.4-.4-.4-.9-.7-1.6-.7-2.1,0-3.1,2.6-3.1,5.7s.5,4.6,1.3,5.5c.5.5,1,.7,1.7.7,2,0,3.1-2.6,3.1-5.8Z"/>
    <path d="M36.5,15.2c-.6-1.5-.7-1.8-1.6-1.8h-.4s0-.2,0-.2h6.6v.2c0,0-.5,0-.5,0-.9,0-1.2.3-.8,1.2l2.7,6.9,2.2-5.2-.6-1.4c-.5-1.2-.8-1.4-1.6-1.5h-.4s0-.2,0-.2h6.6v.2c0,0-.5,0-.5,0-1.1,0-1.1.4-.8,1.2l2.7,6.7,1.6-4.4c.9-2.6.7-3.3-1.1-3.6h-.4c0,0,0-.2,0-.2h4.8v.2c0,0-.5,0-.5,0-1.3.1-1.3.5-2.4,3.6l-2.9,7.9h-.7l-3.5-8.4-3.5,8.4h-.7l-4-9.8Z"/>
    <path class="st5" d="M62.7,11.4c-1.1-2.8-1.3-3.2-2.6-3.3h-.6c0,0,0-.2,0-.2h8.3v.2c0,0-.9,0-.9,0-1.5,0-1.5.4-1,1.7l4.2,10.9h0l3.2-8.2-.4-1.1c-1-2.6-1.3-3.2-2.6-3.3h-.8c0,0,0-.2,0-.2h8.4v.2c0,0-.9,0-.9,0-1.5,0-1.6.3-1.1,1.8l3.9,10.6h0l2.9-8c1.3-3.5,1.5-4.2-1.2-4.4h-.6c0,0,0-.2,0-.2h6v.2c0,0-.5,0-.5,0-1.8.2-1.9.7-3.3,4.5l-4.7,12.6h-.3l-4.6-12.4h0l-4.9,12.4h-.3l-5.4-13.8Z"/>
    <path class="st5" d="M84.3,19c0-3.4,2.7-6.2,6.5-6.2s6.4,2.7,6.4,6.1-2.6,6.2-6.5,6.2-6.4-2.8-6.4-6.2ZM93.7,19.1c0-2.8-.5-4.5-1.4-5.4-.4-.4-.9-.7-1.6-.7-2.1,0-3.1,2.6-3.1,5.7s.5,4.6,1.3,5.5c.5.5,1,.7,1.7.7,2,0,3.1-2.6,3.1-5.8Z"/>
    <path class="st5" d="M98.2,24.6h.4c.8,0,1.1-.1,1.1-.5v-7.6c0-1.7-.2-1.9-1.1-2.1h-.6c0-.1,0-.2,0-.2l4.8-1.3v2.3c0,0,0,0,0,0,1-1,2.5-2.4,4.3-2.4s1.6.4,2.1.9c.4.4.6.9.7,1.5h0c1.1-1.1,2.6-2.4,4.4-2.4s1.6.3,2.1.9.9,1.8.9,3.5v6.9c0,.2,0,.3,1.4.4h.3s0,.2,0,.2h-6.3v-.2c0,0,.6,0,.6,0,.9,0,1-.2,1-.4v-7.1c0-1.7-.7-2.3-2.2-2.3s-1.9.4-2.1,1v1.1s0,7.3,0,7.3c0,.2,0,.2,1.2.4h.4s0,.2,0,.2h-6.3v-.2c0,0,.6,0,.6,0,.9,0,1-.2,1-.4v-7.1c0-1.7-.7-2.3-2.2-2.3s-1.5.4-2.1.8v8.7c0,.2.1.3,1.2.4h.4s0,.2,0,.2h-6.3v-.2Z"/>
    <path class="st5" d="M119.7,19.2c0-3.6,2.7-6.4,6.2-6.4s4.6,1.9,4.6,3.8,0,.3,0,.5c0,0-6.7,0-7.5,0,0,.4,0,.9,0,1.3,0,3,1.7,5,4.1,5s2.6-.6,3.5-2.1h.2c-1.2,2.6-2.9,4-5.4,4s-5.6-2.6-5.6-5.9ZM127.6,16.7c0-1.7-.4-3.6-1.9-3.6s-2.3,1.5-2.6,3.6h4.5Z"/>
    <path class="st5" d="M131.7,24.6h.4c.8,0,1.1-.1,1.1-.5v-7.6c0-1.7-.2-1.9-1.1-2.1h-.6c0-.1,0-.2,0-.2l4.8-1.3v2.3c0,0,0,0,0,0,1.2-1,2.8-2.4,4.6-2.4s1.6.3,2.1.9c.6.6.9,1.8.9,3v7.5c0,.2,0,.3,1.4.4h.3s0,.2,0,.2h-6.4v-.2c0,0,.6,0,.6,0,.9,0,1-.2,1-.4v-7.1c0-1.7-.8-2.3-2.2-2.3s-1.8.4-2.4.8v8.6c0,.2.1.3,1.2.4h.4s0,.2,0,.2h-6.3v-.2Z"/>
    <path d="M157.7,22.8h0c-1.1,1.2-2.3,2.3-3.7,2.3s-2.8-1.2-2.8-2.6c0-1.9,1.5-3.2,6.6-4.5v-.9c.1-2.3-.9-3.5-2.7-3.5s-1.7.4-1.7.7.8.9.8,1.6-.6,1.4-1.6,1.4-1.5-.5-1.5-1.3c0-1.7,3.6-3.1,5.9-3.1s4,1.1,3.9,4.2l-.2,5c0,1,.4,1.5,1,1.5s.8-.4,1.1-.8h.2c-.6.8-1.7,2.3-3.1,2.3s-2-.9-2.2-2.3ZM157.6,22.4l.2-4.1c-2.9.7-3.6,1.7-3.6,3.1s.7,1.9,1.6,1.9,1.2-.3,1.8-.9Z"/>
    <path d="M163.2,24.6h.4c.8,0,1.1-.1,1.1-.5v-7.6c0-1.7-.2-1.9-1.1-2.1h-.6c0-.1,0-.2,0-.2l4.8-1.3v2.3c0,0,0,0,0,0,1.2-1,2.8-2.4,4.6-2.4s1.6.3,2.1.9c.6.6.9,1.8.9,3v7.5c0,.2,0,.3,1.4.4h.3s0,.2,0,.2h-6.4v-.2c0,0,.6,0,.6,0,.9,0,1-.2,1-.4v-7.1c0-1.7-.8-2.3-2.2-2.3s-1.8.4-2.4.8v8.6c0,.2.1.3,1.2.4h.4s0,.2,0,.2h-6.3v-.2Z"/>
    <path d="M186.8,22.7h0c-1.1,1.3-2.5,2.5-4.2,2.5-2.6,0-4.8-2.5-4.8-5.8s3.6-6.4,6.4-6.4,2,.2,2.6.5h0v-3.8c0-1.2-.2-1.5-1.1-1.6l-.9-.2h0c0-.1,5-1.3,5-1.3v15.9c0,1.1.1,1.2.8,1.4l1,.2h0c0,.1-4.8,1.1-4.8,1.1v-2.5ZM186.8,22.2v-6.4c-.6-1.5-1.9-2.6-3-2.6-1.8,0-2.8,2.4-2.8,5.3s1.3,4.8,3.3,4.8,1.8-.5,2.5-1.2Z"/>
    <path class="st3" d="M196.7,24.6h.5c1.8-.1,2.1-.7,2.1-1.3l.4-14.4c-.5-.5-1.1-.7-1.9-.8h-.8c0,0,0-.2,0-.2h6l4.6,12.3h0l4.7-12.3h6.2v.2c0,0-1.4.1-1.4.1-.9,0-1.3.3-1.3.5l.3,15.5c0,.2.2.3,1.5.4h.8c0,0,0,.2,0,.2h-8.4v-.2c0,0,1.4-.1,1.4-.1.9,0,1.1-.3,1.1-.5l-.4-15h0l-6,15.7h-.3l-5.7-15c0-.2-.2-.4-.3-.5l-.2,14.2c0,.5.5.9,2.6,1.1h.5s0,.2,0,.2h-6.2v-.2Z"/>
    <path class="st3" d="M218.7,19.2c0-3.6,2.7-6.4,6.2-6.4s4.6,1.9,4.6,3.8,0,.3,0,.5c0,0-6.7,0-7.5,0,0,.4,0,.9,0,1.3,0,3,1.7,5,4.1,5s2.6-.6,3.5-2.1h.2c-1.2,2.6-2.9,4-5.4,4s-5.6-2.6-5.6-5.9ZM226.5,16.7c0-1.7-.4-3.6-1.9-3.6s-2.3,1.5-2.6,3.6h4.5Z"/>
    <path class="st3" d="M230.7,24.6h.4c.8,0,1.1-.1,1.1-.5v-7.6c0-1.7-.2-1.9-1.1-2.1h-.6c0-.1,0-.2,0-.2l4.8-1.3v2.3c0,0,0,0,0,0,1.2-1,2.8-2.4,4.6-2.4s1.6.3,2.1.9c.6.6.9,1.8.9,3v7.5c0,.2,0,.3,1.4.4h.3s0,.2,0,.2h-6.4v-.2c0,0,.6,0,.6,0,.9,0,1-.2,1-.4v-7.1c0-1.7-.8-2.3-2.2-2.3s-1.8.4-2.4.8v8.6c0,.2.1.3,1.2.4h.4s0,.2,0,.2h-6.3v-.2Z"/>
    <path d="M250.1,24.6h.9c.9-.2,1.3-.4,1.3-.6v-15.5c0-.2-.2-.3-1.5-.4h-.7c0,0,0-.2,0-.2h13.8l.3,5.5h-.2v-.3c-1.1-3.6-2.7-5-6-4.9h-2.1v7.8h1.2c2.4-.1,3.4-.8,4-2.5l.2-.5h.2s-.7,6.5-.7,6.5h-.2s0-.5,0-.5c-.2-2-.9-2.5-3.7-2.6h-.9c0,0,0,8.1,0,8.1h2.6c3.5,0,5.3-2,6.3-5v-.3h.3l-.8,5.6h-14.4v-.2Z"/>
    <path d="M265.8,24.6h.5c1.3-.3,1.8-.8,3.5-3.2l1.2-1.6-2.8-4.3c-1-1.4-1.5-2-2.3-2.1h-.4s0-.2,0-.2h6.8v.2c0,0-.6,0-.6,0-.9.1-.8.7-.1,1.6l1.6,2.5h0l1-1.4c1.6-2.3,1.5-2.7,0-2.8h-.5c0,0,0-.2,0-.2h4.9v.2c0,0-.6,0-.6,0-1.2.2-1.8.8-3.5,3.1l-.9,1.2,3.1,4.7c.9,1.4,1.5,2,2.1,2.1h.4s.1.2.1.2h-6.7v-.2c0,0,.5,0,.5,0,.9,0,.8-.6.2-1.6l-1.9-2.9h0l-1.3,1.8c-1.6,2.2-1.5,2.7,0,2.8h.5c0,0,0,.2,0,.2h-4.9v-.2Z"/>
    <path d="M278.8,31.4h.5c.8,0,1.1-.1,1.1-.4v-14.4c0-1.7-.2-1.9-1.1-2.1h-.6c0-.1,0-.2,0-.2l4.8-1.3v2.4c0,0,0,0,0,0,1.1-1.3,2.5-2.5,4.2-2.5,2.7,0,4.8,2.4,4.8,5.7s-3.5,6.5-6.4,6.5-2-.2-2.6-.5h0v6.4c0,.2.1.3,1.3.4h.9s0,.2,0,.2h-7.1v-.2ZM289.2,19.5c0-2.7-1.3-4.8-3.3-4.8s-1.8.5-2.5,1.1v6.4c.7,1.5,1.9,2.6,3,2.6,1.8,0,2.7-2.4,2.7-5.3Z"/>
    <path d="M293.6,19.2c0-3.6,2.7-6.4,6.2-6.4s4.6,1.9,4.6,3.8,0,.3,0,.5c0,0-6.7,0-7.5,0,0,.4,0,.9,0,1.3,0,3,1.7,5,4.1,5s2.6-.6,3.5-2.1h.2c-1.2,2.6-2.9,4-5.4,4s-5.6-2.6-5.6-5.9ZM301.4,16.7c0-1.7-.4-3.6-1.9-3.6s-2.3,1.5-2.6,3.6h4.5Z"/>
    <path d="M305.6,24.6h.4c.8,0,1.1-.1,1.1-.5v-7.6c0-1.7-.2-1.9-1.1-2.1h-.6c0-.1,0-.2,0-.2l4.8-1.3v4.3c0,0,0,0,0,0,.8-2.8,1.9-4.3,3.6-4.3s1.9.7,1.9,1.8-.7,1.7-1.6,1.7-1.7-.7-1.9-1.8c-.9.1-1.5,1.3-2.1,3.7v5.9c0,.2.2.4,1.4.4h.6s0,.2,0,.2h-6.8v-.2Z"/>
    <path d="M316.5,24.6h.4c.8,0,1.1-.1,1.1-.5v-7.6c0-1.7-.2-1.9-1.1-2.1h-.6c0-.1,0-.2,0-.2l4.8-1.3v11.3c0,.2.2.3,1.4.4h.3s0,.2,0,.2h-6.4v-.2ZM317.4,9.2c0-.9.6-1.9,1.9-1.9s1.9,1,1.9,1.9-.6,1.9-1.9,1.9-1.9-1-1.9-1.9Z"/>
    <path d="M323.6,19.2c0-3.6,2.7-6.4,6.2-6.4s4.6,1.9,4.6,3.8,0,.3,0,.5c0,0-6.7,0-7.5,0,0,.4,0,.9,0,1.3,0,3,1.7,5,4.1,5s2.6-.6,3.5-2.1h.2c-1.2,2.6-2.9,4-5.4,4s-5.6-2.6-5.6-5.9ZM331.4,16.7c0-1.7-.4-3.6-1.9-3.6s-2.3,1.5-2.6,3.6h4.5Z"/>
    <path d="M335.6,24.6h.4c.8,0,1.1-.1,1.1-.5v-7.6c0-1.7-.2-1.9-1.1-2.1h-.6c0-.1,0-.2,0-.2l4.8-1.3v2.3c0,0,0,0,0,0,1.2-1,2.8-2.4,4.6-2.4s1.6.3,2.1.9c.6.6.9,1.8.9,3v7.5c0,.2,0,.3,1.4.4h.3s0,.2,0,.2h-6.4v-.2c0,0,.6,0,.6,0,.9,0,1-.2,1-.4v-7.1c0-1.7-.8-2.3-2.2-2.3s-1.8.4-2.4.8v8.6c0,.2.1.3,1.2.4h.4s0,.2,0,.2h-6.3v-.2Z"/>
    <path d="M350.1,19.4c0-3.6,2.6-6.5,6.4-6.5s4.3,1.1,4.3,2.6-.7,1.6-1.6,1.6-1.6-.7-1.6-1.5.7-1.4.7-1.6c0-.4-.8-.8-1.6-.8-1.9,0-3.2,2-3.2,5.1s1.6,5.1,4,5.1,2.5-.6,3.4-2.1h.2c-1.2,2.6-2.9,4-5.3,4s-5.6-2.5-5.6-5.8Z"/>
    <path d="M361.7,19.2c0-3.6,2.7-6.4,6.2-6.4s4.6,1.9,4.6,3.8,0,.3,0,.5c0,0-6.7,0-7.5,0,0,.4,0,.9,0,1.3,0,3,1.7,5,4.1,5s2.6-.6,3.5-2.1h.2c-1.2,2.6-2.9,4-5.4,4s-5.6-2.6-5.6-5.9ZM369.5,16.7c0-1.7-.4-3.6-1.9-3.6s-2.3,1.5-2.6,3.6h4.5Z"/>
    <path d="M378.6,24.6h1c.9-.2,1.3-.4,1.3-.6v-15.5c0-.2-.2-.3-1.5-.4h-.7c0,0,0-.2,0-.2h8.2v.2c0,0-1.1.1-1.1.1-.9.1-1.3.3-1.3.5v7.4h7.6v-7.5c0-.2-.2-.3-1.5-.4h-.7c0,0,0-.2,0-.2h8.2v.2c0,0-1.1.1-1.1.1-.9.1-1.3.3-1.3.5v15.5c0,.2.2.3,1.5.4h.7c0,0,0,.2,0,.2h-8.2v-.2c0,0,1.1-.1,1.1-.1.9-.1,1.3-.3,1.3-.5v-7.7h-7.6v7.8c0,.2.2.3,1.5.4h.7c0,0,0,.2,0,.2h-8.2v-.2Z"/>
    <path d="M398.3,24.6h.4c.8,0,1.1-.1,1.1-.5v-7.6c0-1.7-.2-1.9-1.1-2.1h-.6c0-.1,0-.2,0-.2l4.8-1.3v11.3c0,.2.2.3,1.4.4h.3s0,.2,0,.2h-6.4v-.2ZM399.3,9.2c0-.9.6-1.9,1.9-1.9s1.9,1,1.9,1.9-.6,1.9-1.9,1.9-1.9-1-1.9-1.9Z"/>
    <path d="M405.4,24.6h.4c.8,0,1.1-.1,1.1-.5v-7.6c0-1.7-.2-1.9-1.1-2.1h-.6c0-.1,0-.2,0-.2l4.8-1.3v2.3c0,0,0,0,0,0,1.2-1,2.8-2.4,4.6-2.4s1.6.3,2.1.9c.6.6.9,1.8.9,3v7.5c0,.2,0,.3,1.4.4h.3s0,.2,0,.2h-6.4v-.2c0,0,.6,0,.6,0,.9,0,1-.2,1-.4v-7.1c0-1.7-.8-2.3-2.2-2.3s-1.8.4-2.4.8v8.6c0,.2.1.3,1.2.4h.4s0,.2,0,.2h-6.3v-.2Z"/>
    <path d="M419.6,28.5c0-1.5,1.9-2.4,3.4-3h0c-1.8-.1-3.2-1.2-3.2-2.4s1.6-2.5,3.2-2.9h0c-1.4-.5-2.5-1.7-2.5-3.3s2.2-4,4.9-4,2.4.4,3.2.9l3.5-.6-.3,1.4-2.7-.4h0c.7.7,1.1,1.6,1.1,2.5,0,2.2-2.1,3.9-5,3.9s-1.4-.1-1.8-.2c-.9.2-1.6.7-1.6,1.4s.8,1,2.2,1,2.5,0,3.5,0c2.5,0,4,1.2,4,3.2,0,3-3,5.3-7.2,5.3s-4.8-.9-4.8-2.7ZM429.7,27.6c0-1.5-1.1-2.1-3.6-2.2-.7,0-1.9,0-2.8.2-1,.4-1.5,1.3-1.5,2.3,0,1.6,1.6,2.8,3.9,2.8s3.9-1.4,3.9-3.1ZM427.3,16.9c0-2.2-.5-3.7-2-3.7s-1.8,1.2-1.8,3.5.7,3.6,1.9,3.6,1.9-1.2,1.9-3.4Z"/>
    <path d="M432.1,19.2c0-3.6,2.7-6.4,6.2-6.4s4.6,1.9,4.6,3.8,0,.3,0,.5c0,0-6.7,0-7.5,0,0,.4,0,.9,0,1.3,0,3,1.7,5,4.1,5s2.6-.6,3.5-2.1h.2c-1.2,2.6-2.9,4-5.4,4s-5.6-2.6-5.6-5.9ZM440,16.7c0-1.7-.4-3.6-1.9-3.6s-2.3,1.5-2.6,3.6h4.5Z"/>
  </g>
</svg>