<svg xmlns="http://www.w3.org/2000/svg" width="350" height="350"><rect width="350" height="350" x="0" y="0" fill="#FFFFFF" id="background"/><g transform="translate(10,10)" id="viz"><g><rect x="0" y="11.583234339732646" height="313.9024390243902" width="5" fill="black"><title>Total Interactions: 1236</title></rect><rect x="81.25" y="0" height="307.8072460336254" width="5" fill="black"><title>Likes Sent: 1212</title></rect><rect x="81.25" y="323.9048070092352" height="6.095192990764872" width="5" fill="black"><title>Likes Received: 24</title></rect><rect x="162.5" y="142.0162566328713" height="27.174402083826664" width="5" fill="black"><title>Matches: 107</title></rect><rect x="243.75" y="150.04461289737063" height="23.11094008998336" width="5" fill="black"><title>Chats: 91</title></rect><rect x="325" y="168.47096225827394" height="0.1269831873076157" width="5" fill="black"><title>Dates: 0.5</title></rect></g><g class="links" fill="none" stroke-opacity="1"><path d="M5,165.48685735654536C43.125,165.48685735654536,43.125,153.90362301681267,81.25,153.90362301681267" stroke="#c7ada0" style="stroke-width: 307.807; mix-blend-mode: multiply;"><title>Total Interactions → Likes Sent: 1212</title></path><path d="M5,322.4380768687405C43.125,322.4380768687405,43.125,326.95240350461756,81.25,326.95240350461756" stroke="#c7ada0" style="stroke-width: 6.09519; mix-blend-mode: multiply;"><title>Total Interactions → Likes Received: 24</title></path><path d="M86.25,10.539604546530907C124.375,10.539604546530907,124.375,152.55586117940217,162.5,152.55586117940217" stroke="#79a1a0" style="stroke-width: 21.0792; mix-blend-mode: multiply;"><title>Likes Sent → Matches: 83</title></path><path d="M86.25,326.95240350461756C124.375,326.95240350461756,124.375,166.1430622213155,162.5,166.1430622213155" stroke="#484848" style="stroke-width: 6.09519; mix-blend-mode: multiply;"><title>Likes Received → Matches: 24</title></path><path d="M167.5,153.57172667786298C205.625,153.57172667786298,205.625,161.60008294236232,243.75,161.60008294236232" stroke="#ece1dc" style="stroke-width: 23.1109; mix-blend-mode: multiply;"><title>Matches → Chats: 91</title></path><path d="M248.75,150.10810449102445C286.875,150.10810449102445,286.875,168.53445385192776,325,168.53445385192776" stroke="#000000" style="stroke-width: 1; mix-blend-mode: multiply;"><title>Chats → Dates: 0.5</title></path></g><g><text x="9" y="168.53445385192776" text-anchor="start"><tspan alignment-baseline="middle" style="font-family: Arial, sans-serif; font-size: 10px; fill: black; font-weight: bold;">Total Interactions</tspan></text><text x="90.25" y="153.9036230168127" text-anchor="start"><tspan alignment-baseline="middle" style="font-family: Arial, sans-serif; font-size: 10px; fill: black; font-weight: bold;">Likes Sent</tspan></text><text x="90.25" y="326.9524035046176" text-anchor="start"><tspan alignment-baseline="middle" style="font-family: Arial, sans-serif; font-size: 10px; fill: black; font-weight: bold;">Likes Received</tspan></text><text x="171.5" y="155.60345767478464" text-anchor="start"><tspan alignment-baseline="middle" style="font-family: Arial, sans-serif; font-size: 10px; fill: black; font-weight: bold;">Matches</tspan></text><text x="239.75" y="161.6000829423623" text-anchor="end"><tspan alignment-baseline="middle" style="font-family: Arial, sans-serif; font-size: 10px; fill: black; font-weight: bold;">Chats</tspan></text><text x="321" y="168.53445385192776" text-anchor="end"><tspan alignment-baseline="middle" style="font-family: Arial, sans-serif; font-size: 10px; fill: black; font-weight: bold;">Dates</tspan></text></g></g></svg>