<svg xmlns="http://www.w3.org/2000/svg" width="700" height="375"><rect width="700" height="375" x="0" y="0" fill="#FFFFFF" id="background"/><g transform="translate(10,10)" id="viz"><g><rect x="0" y="12.496535721810776" height="338.8636363636363" width="5" fill="black"><title>Total Interactions: 1236</title></rect><rect x="168.75" y="0" height="332.2837599293909" width="5" fill="black"><title>Likes Sent: 1212</title></rect><rect x="168.75" y="348.4201235657545" height="6.579876434245477" width="5" fill="black"><title>Likes Received: 24</title></rect><rect x="337.5" y="153.29236522913394" height="29.335282436010715" width="5" fill="black"><title>Matches: 107</title></rect><rect x="506.25" y="161.96438340615177" height="24.948698146513806" width="5" fill="black"><title>Chats: 91</title></rect><rect x="675" y="181.8598135241055" height="0.1370807590468246" width="5" fill="black"><title>Dates: 0.5</title></rect></g><g class="links" fill="none" stroke-opacity="1"><path d="M5,178.63841568650628C86.875,178.63841568650628,86.875,166.1418799646955,168.75,166.1418799646955" stroke="#c7ada0" style="stroke-width: 332.284; mix-blend-mode: multiply;"><title>Total Interactions → Likes Sent: 1212</title></path><path d="M5,348.0702338683244C86.875,348.0702338683244,86.875,351.7100617828772,168.75,351.7100617828772" stroke="#c7ada0" style="stroke-width: 6.57988; mix-blend-mode: multiply;"><title>Total Interactions → Likes Received: 24</title></path><path d="M173.75,11.377703000882617C255.625,11.377703000882617,255.625,164.67006823001657,337.5,164.67006823001657" stroke="#79a1a0" style="stroke-width: 22.7554; mix-blend-mode: multiply;"><title>Likes Sent → Matches: 83</title></path><path d="M173.75,351.7100617828772C255.625,351.7100617828772,255.625,179.33770944802183,337.5,179.33770944802183" stroke="#484848" style="stroke-width: 6.57988; mix-blend-mode: multiply;"><title>Likes Received → Matches: 24</title></path><path d="M342.5,165.76671430239074C424.375,165.76671430239074,424.375,174.43873247940857,506.25,174.43873247940857" stroke="#ece1dc" style="stroke-width: 24.9487; mix-blend-mode: multiply;"><title>Matches → Chats: 91</title></path><path d="M511.25,162.03292378567517C593.125,162.03292378567517,593.125,181.92835390362893,675,181.92835390362893" stroke="#000000" style="stroke-width: 1; mix-blend-mode: multiply;"><title>Chats → Dates: 0.5</title></path></g><g><text x="9" y="181.92835390362893" text-anchor="start"><tspan alignment-baseline="middle" style="font-family: Arial, sans-serif; font-size: 10px; fill: black; font-weight: bold;">Total Interactions</tspan></text><text x="177.75" y="166.14187996469545" text-anchor="start"><tspan alignment-baseline="middle" style="font-family: Arial, sans-serif; font-size: 10px; fill: black; font-weight: bold;">Likes Sent</tspan></text><text x="177.75" y="351.71006178287723" text-anchor="start"><tspan alignment-baseline="middle" style="font-family: Arial, sans-serif; font-size: 10px; fill: black; font-weight: bold;">Likes Received</tspan></text><text x="346.5" y="167.96000644713928" text-anchor="start"><tspan alignment-baseline="middle" style="font-family: Arial, sans-serif; font-size: 10px; fill: black; font-weight: bold;">Matches</tspan></text><text x="502.25" y="174.43873247940866" text-anchor="end"><tspan alignment-baseline="middle" style="font-family: Arial, sans-serif; font-size: 10px; fill: black; font-weight: bold;">Chats</tspan></text><text x="671" y="181.92835390362893" text-anchor="end"><tspan alignment-baseline="middle" style="font-family: Arial, sans-serif; font-size: 10px; fill: black; font-weight: bold;">Dates</tspan></text></g></g></svg>